<?xml version="1.0" encoding="UTF-8" standalone="no"?>
<!-- Created with Inkscape (http://www.inkscape.org/) -->
<svg xmlns:rdf="http://www.w3.org/1999/02/22-rdf-syntax-ns#" xmlns="http://www.w3.org/2000/svg" version="1.1" xmlns:cc="http://creativecommons.org/ns#" xmlns:dc="http://purl.org/dc/elements/1.1/" viewBox="0 0 219.7 52.9">

 <defs/>

 <metadata>

  <rdf:RDF>

   <cc:Work rdf:about="">

    <dc:format>image/svg+xml</dc:format>

    <dc:type rdf:resource="http://purl.org/dc/dcmitype/StillImage"/>

    <dc:title/>

   </cc:Work>

  </rdf:RDF>

 </metadata>

 <g transform="translate(-597.32653,-588.35303)">

  <g transform="matrix(0.8854296,0,0,0.8854296,81.020682,70.438302)">

   <path d="m783.9,615.7c-7.685,0.0464-2.245-0.0322-10.35,0.0137-2.908,0.0224-28.13,0.0469-30.62,0.0469-4.156-0.0245,1.426-0.0709-2.312-0.0709-3.532,0.024-6.649,0.1382-10.18,0.0709-3.53-0.0469-11.46,0.0454-15-0.0245-3.739-0.0684-8.101,0.1152-12.26,0.0464-1.454-0.0219-2.286-0.0464-3.532-0.0219-3.116,0.0908-4.986-0.0469-8.518,0.0219-3.323,0.0689-10.11,0.0455-13.02-0.0928-2.285-0.0912-3.532,0.0464-5.817,0.024-1.661-0.024-2.493,0-4.155,0.0469-1.249,0.0303-8.544,0.206-13.87,0.3412,0.004-0.004,0.008-0.007,0.0132-0.0131,0.0859-0.0801,0.1679-0.1562,0.2465-0.232,0.0435-0.0395,0.0904-0.0825,0.1295-0.1206,0.1151-0.1089,0.2182-0.2114,0.31-0.3041,0.1631-0.168,0.2412-0.416,0.2735-0.5351h0.016s-0.003-0.0156-0.008-0.0362c0.005-0.0205,0.008-0.0356,0.008-0.0356l-0.016,0.001c-0.0322-0.1211-0.1104-0.3686-0.2735-0.5361-0.085-0.085-0.1788-0.1787-0.2818-0.2774-0.0244-0.0234-0.0541-0.0498-0.0781-0.0746-0.2725-0.2569-0.5904-0.5479-0.9072-0.8434-0.005-0.007-0.0116-0.0126-0.0185-0.018,0.5234,0.003,1.038,0.008,1.511,0.0141,3.117,0,9.414-0.0469,12.53-0.0469,7.271,0,17.8-0.0469,25.28-0.0234,3.325,0.0234,5.404,0,8.52,0.0454l0.8315-0.0689c2.493,0.0469,5.402,0,7.687,0.0235,1.661,0.0234,2.908,0.0234,4.57,0l15.42,0.0454c1.246-0.0689,3.115-0.1138,4.776-0.0909,2.286,0.0455,3.326,0.022,5.61,0.1158,1.455,0.0684,2.285,0,3.532,0,3.948,0,20.89-0.0937,24.63-0.0249,0.8325,0.0249,1.456-0.022,2.495,0,3.115,0.0699,6.646,0,9.349-0.022,3.948-0.0234,18.54,0.4659,19.62,1.254,1.226,0.8901-15.47,1.401-16.13,1.401zm-146.8-0.5385c-0.4491,0.0947-0.8989-0.1265-1.304-0.063-0.3584,0.063-0.5386,0.0947-0.898,0.063-0.4936-0.0312-0.7631,0.1562-1.259,0.0317-0.1391-0.043-0.3604-0.0773-0.624-0.1031,0-0.001,0.001-0.001,0.001-0.001,0.1656-0.1524,0.3076-0.2374,0.4498-0.3882,0.1665-0.163,0.1665-0.2572,0.2846-0.4184,0.1598-0.1836,0.2705-0.2969,0.4-0.4561,0.2334,0.0235,0.4491,0.085,0.747,0.0659,0.3594-0.0312,0.5396,0,0.898,0.063,0.4048,0.0635,0.8545-0.1576,1.304-0.063,0.377,0.0675,0.5586,0.3629,0.713,0.6352-0.1544,0.2701-0.336,0.567-0.713,0.6344zm-6.382-0.9082c-0.188,0.2382-0.3071,0.3604-0.4971,0.5981-0.0517,0.082-0.0908,0.148-0.1309,0.2144-0.004,0-0.008,0-0.0121,0.001-0.6201,0.0761-1.987-0.0351-2.842-0.0118,0.149-0.1304,0.2804-0.2162,0.4121-0.355,0.1665-0.163,0.1665-0.2572,0.2842-0.4184,0.102-0.1162,0.1835-0.2046,0.2616-0.2935,0.711-0.02,1.466-0.0543,1.884-0.001,0.189,0.0249,0.4814,0.0405,0.8198,0.0479-0.058,0.0699-0.1186,0.1411-0.1796,0.2182zm-5.818,0c-0.1905,0.2382-0.3101,0.3604-0.498,0.5981-0.0567,0.0879-0.0968,0.1592-0.1406,0.2276-0.9459,0.0444-1.962,0.1059-2.431,0.0512-0.1689-0.021-0.3192-0.0303-0.4619-0.0348,0.003-0.003,0.005-0.004,0.008-0.007,0.1665-0.1524,0.3096-0.2374,0.4508-0.3882,0.1665-0.163,0.1665-0.2572,0.2861-0.4184,0.1328-0.1539,0.2319-0.2569,0.3364-0.3804,0.7476,0.008,1.823,0.0835,2.651,0.1025-0.0644,0.0786-0.1312,0.1616-0.2011,0.249zm-5.822,0c-0.188,0.2382-0.3076,0.3604-0.4966,0.5981-0.0712,0.1124-0.1181,0.1964-0.1782,0.2851-0.2309,0.0235-0.4644,0.0469-0.7075,0.0567-0.687,0-1.416-0.0445-2.168-0.0786,0.01-0.008,0.0191-0.0161,0.0299-0.0259,0.1679-0.1524,0.3085-0.2374,0.4506-0.3882,0.1665-0.163,0.1665-0.2572,0.2848-0.4184,0.1381-0.1593,0.2401-0.2638,0.3471-0.3916,0.3599-0.0151,0.7139-0.0299,1.056-0.0299,0.5596,0.022,1.071,0.1124,1.604,0.1221-0.0703,0.0855-0.144,0.1748-0.2216,0.2705zm-5.819,0c-0.19,0.2382-0.3076,0.3604-0.4971,0.5981-0.0654,0.106-0.1112,0.1846-0.166,0.2676-1.098,0.0113-2.193,0.0259-2.502,0.0425-0.145,0.005-0.2955,0.007-0.4459,0.0108,0.0299-0.0274,0.0581-0.0533,0.0904-0.0835,0.1665-0.1524,0.3071-0.2374,0.4506-0.3882,0.1665-0.163,0.1665-0.2572,0.2842-0.4184,0.1304-0.1495,0.228-0.253,0.3305-0.3721,0.7174,0.0127,1.796,0.0244,2.708,0.0341-0.0806,0.0977-0.1626,0.1978-0.252,0.3091zm203.6-0.9288c-0.28-0.5492-1.289-0.6591-1.991-0.9232-0.25-0.0894-0.4762-0.1554-0.7288-0.2212-0.5325-0.1304-1.066-0.3066-1.654-0.4175-0.5362-0.1104-1.038-0.33-1.572-0.4619-0.2512-0.044-0.3938-0.0874-0.6462-0.1314-0.5312-0.0664-1.009-0.2856-1.511-0.4399-0.31-0.0879-0.6188-0.1319-0.9275-0.2638-0.3662-0.1544-0.7862-0.2631-1.206-0.3319-0.3362-0.065-0.365-0.0425-0.6738-0.0875-0.6175-0.065-1.232-0.2862-1.796-0.5062-0.3362-0.1538-3.18-0.3462-5.108-0.875-1.136-0.3138-6.096,1.524-10.14,1.689-4.038,0.167-132.6-0.3464-132.7-0.1564l-2.896-0.1275c-0.5996-0.0225-1.307,0.03-1.911-0.055-0.2999-0.5838-0.5274-1.061-0.5274-1.061s-0.2685,0.0512-0.7178,0.1062c-0.128-0.0625-0.2818-0.0675-0.439-0.0675l-2.921,0.1588c-2.066-0.145-4.479-0.7238-6.122-2.414-3.428-3.525-5.456-9.105-5.456-9.105l-0.064-0.0612s-0.8012,0.39-0.8345,1.914c-0.0849,3.728,0.669,8.562,0.669,8.562s2.095-0.1362,3.801,0.6462c0.5074,0.2325,1.393,0.8425,2.396,1.591-1.871-0.0175-4.844-0.05-5.33-0.05-1.572,0-4.597-0.0638-6.213-0.0325-0.7192,0.0325-2.662,0-3.337,0.0638l-0.1796-0.095c-0.5411,0.0638-2.663,0-3.157,0.0312-0.3609,0.0325-0.6294,0.0325-0.9902,0l-2.022,0.0638c-0.2695-0.095-0.6734-0.1575-1.033-0.1262-0.4948,0.0625-0.7188,0.0312-1.212,0.1575-0.3154,0.0949-0.4951,0-0.7651,0-0.8515,0-3.5-0.1262-4.31-0.0312-0.1798,0.0312-1.81-0.0312-2.034,0-0.6734,0.0935-1.438,0-2.022-0.0312-0.5781-0.0225-1.525,0.0263-2.292-0.0475-0.3061-0.8938-0.6171-1.928-0.6171-1.928s-4.307,1.331-6.488-2.251c-2.18-3.584-2.283,1.192-1.198,1.989,1.118,0.8175,5.133,6.242,5.133,6.242v0.0488s-4.016,5.425-5.133,6.244c-1.085,0.7954-0.9824,5.573,1.198,1.99,2.181-3.584,6.488-2.254,6.488-2.254s0.1998-0.6626,0.436-1.385c0.7905-0.1015,1.849-0.041,2.473-0.0654,0.5835-0.0304,1.349-0.1255,2.022-0.0304,0.2241,0.0304,1.854-0.0336,2.034,0,0.809,0.0947,3.458-0.0336,4.31-0.0336,0.27,0,0.4498-0.0937,0.7651,0,0.4938,0.1284,0.7178,0.0961,1.212,0.1591,0.3598,0.0322,0.7636-0.0308,1.033-0.1255l2.022,0.0625c0.3609-0.0321,0.6294-0.0321,0.9902,0,0.4941,0.0322,2.616-0.0321,3.157,0.0322l0.1796-0.0947c0.6748,0.0625,2.618,0.0304,3.337,0.0625,1.616,0.0322,4.641-0.0321,6.213-0.0321,0.5758,0,4.629-0.046,6.22-0.0596-1.352,1.044-2.635,1.971-3.287,2.269-1.706,0.7833-3.801,0.647-3.801,0.647s-0.7539,4.836-0.669,8.563c0.0333,1.523,0.8345,1.913,0.8345,1.913l0.064-0.0611s2.028-5.58,5.456-9.105,10.2-2.216,10.2-2.216,0.5699-1.186,1.086-2.107c0.4545-0.0148,0.9311,0.008,1.352-0.008l2.896-0.0727c-0.0284,0.1739,0.8008,0.0494,1.708,0.0244,0.9082-0.0244,130.1-0.1361,132.8-0.0244,2.638,0.1138,7.026,1.156,8.079,1.285,0.2488,0.0318,2.372-0.2641,2.739-0.3095,0.2238-0.0435,0.5562-0.4039,0.7525-0.4244,0.6162-0.0674,1.066-0.3969,1.711-0.4624,0.2812-0.0444,0.4775-0.1542,0.7588-0.2646,0.2512-0.1099,0.5325-0.0874,0.7838-0.1978,0.45-0.1978,0.8975-0.3735,1.404-0.4834,0.28-0.066,0.3088-0.2198,0.615-0.2418,0.5362-0.022,0.8162-0.4854,1.375-0.4854,0.365,0,0.365-0.1304,0.675-0.2198,0.6162-0.1538,1.261-0.2861,1.796-0.5712,0.2525-0.1319,0.3075-0.1762,0.505-0.2198,0.5888-0.1338,1.009-0.374,1.57-0.5059,0.2512-0.0439,0.475-0.1318,0.7575-0.2411,0.28-0.0889,0.6162-0.0445,0.8125-0.2208,0.2525-0.1978,0.4488-0.1752,0.6738-0.2646,0.3075-0.1084,0.6175-0.1324,0.8975-0.2422,0.5312-0.1978,0.4488-0.7695,0.2512-1.187" fill-rule="nonzero" fill="#231f20"/>

   <path d="m696.9,631.2c-0.3008,0.0249-0.6768,0.0498-0.6768,0.0498s-0.9672,0.1168-1.281,0.0933c-0.4869-0.0434-1.769,0.004-2.216-0.0434,0.1098-0.4366,0.33-0.8701,0.5556-1.283,0.4078-0.789,0.7216-1.631,1.034-2.446,0.062-0.1529,0.6549-1.206,0.7812-1.282,0.0615-0.0528,0.4922,0.7959,0.5552,0.8481,0.0922,0.0512,0.2188,0.1274,0.2831,0.2295,0.0615,0.2544,0.2802,0.4575,0.374,0.7382,0.0327,0.1294,0.0952,0.2046,0.125,0.3838,0.063,0.229,0.4078,0.2549,0.4078,0.5338,0.0323,0.2051,0.251,0.3579,0.3448,0.561,0.1578,0.2554,0.4096,0.4605,0.502,0.7392,0.0326,0.2046,0.125,0.2549,0.188,0.3819,0.0879,0.1601,0.1821,0.3174,0.2778,0.4741-0.4399,0.01-1.049,0.004-1.254,0.0215zm9.281,5.206c-0.2822-0.1509-0.7529-0.0249-1.035-0.2021-0.2188-0.126-0.125-0.4301-0.3125-0.6069-0.2202-0.2281-0.44-0.3531-0.4698-0.607-0.063-0.2782-0.0937-0.2534-0.1572-0.48-0.0948-0.4052-0.5644-0.709-0.7524-1.122-0.062-0.1021-0.188-0.1798-0.2188-0.333-0.0308-0.2056-0.1875-0.3604-0.3125-0.566-0.1275-0.2045-0.1895-0.4081-0.314-0.6358-0.251-0.4609-0.5328-0.9442-0.8468-1.377-0.1566-0.2051-0.3129-0.3575-0.4066-0.5874-0.126-0.2291-0.1895-0.4078-0.3135-0.585-0.2202-0.2818-0.2202-0.6368-0.4698-0.8926-0.1895-0.1772-0.251-0.2788-0.4082-0.459-0.188-0.1791-0.3125-0.3818-0.4384-0.6108-0.1559-0.3058-0.4068-0.5616-0.5328-0.9185-0.0943-0.2549-0.126-0.3301-0.2188-0.5855-0.1265-0.4834-0.627-0.8402-0.8468-1.3-0.1568-0.3048-0.2509-0.6378-0.5014-0.916-0.1578-0.2051-0.313-0.2559-0.4068-0.5356-0.063-0.23-0.1265-0.2559-0.188-0.4595-0.063-0.3052-0.4708-0.2798-0.751-0.4088-0.3775-0.1781-0.9736-0.0239-1.412-0.1005-0.2812-0.0518-0.3769,0-0.6894,0-0.7208-0.0518-1.63-0.1285-2.286,0.1522-0.2201,0.1016-0.2514,0.1016-0.1884,0.3062,0.0298,0.0507,0.062,0.0507,0.0928,0.0761,0.3769,0.2818,0.9096,0.1006,1.224,0.3056,0.313,0.2031,0.5005,0.4082,0.6885,0.688,0.1894,0.3316-0.0269,0.2295,0.1621,0.5615,0.1264,0.2789,0.0634,0.4835,0,0.7374-0.063,0.3325-0.5568,1.267-0.7134,1.6-0.2838,0.5849-0.4092,0.9491-0.7545,1.511-0.0937,0.1269-0.0937,0.2544-0.1558,0.4076-0.1875,0.4072-0.2198,0.8155-0.3755,1.197-0.1571,0.3068-0.2831,0.587-0.3769,0.8672-0.0845,0.2349-0.1783,0.4531-0.272,0.6744-0.0781,0.1884-0.1572,0.375-0.23,0.5741-0.0517,0.232-0.2402,0.4566-0.3364,0.6846,0.1045,0.002,0.4321-0.003,0.5366-0.003,0.3916,0.008,0.7675,0.007,1.142,0.005,0.7621-0.002,2.372-0.0146,3.172,0.021,0.0561,0,0.5664-0.005,1.244-0.0121,0.2562-0.003,0.5366-0.006,0.8261-0.009,0.3701-0.002,0.9058-0.0239,1.288-0.0317l0.4096,0.7002c-0.1065,0.009-0.2139,0.0185-0.3184,0.0171-0.3822-0.004-0.9658-0.0289-1.355-0.0312-0.29-0.003-0.5728-0.007-0.8305-0.01-0.6768-0.007-1.186-0.0113-1.243-0.0113-0.8858,0.0376-2.681,0.0195-3.53,0.018-0.2925,0-0.5912,0.001-0.896,0.007-0.2362,0-0.4736,0.009-0.7016,0.0151-0.0136,0.0332-0.0308,0.065-0.0512,0.0986l-0.2495,0.6959s-0.1475,0.4135,0.2656,0.4438c0.4135,0.0289,1.15-0.0254,1.15-0.0254,0.2998-0.001,0.6118,0.021,0.9042-0.038,0.5318-0.0987,1.98-0.025,2.546-0.0743,0.3129-0.0245,1.28,0.0922,1.28,0.0922s0.3769,0.0254,0.6772,0.0503c0.3007,0.0255,1.484,0.002,1.708,0.0499,0.0669,0.0156,0.5932-0.0757,1.155-0.0747,0.0835,0,0.1748,0.002,0.2631,0.003,0.0176,0.0459,0.0323,0.0889,0.0523,0.1269,0.1568,0.2525,0.2505,0.5059,0.4712,0.7598,0.1245,0.2002,0.2182,0.2525,0.3125,0.4282,0.2495,0.4561,0.502,0.8852,0.8145,1.316,0.1254,0.2105,0.4691,0.1841,0.7524,0.1841,1.002,0,1.912-0.1562,2.882-0.1045,0.2831,0.0264,0.2831-0.0264,0.5336,0.0528,0.1558,0.0517,0.377-0.0791,0.4688-0.2598,0.0625-0.1772,0-0.354-0.1558-0.4551" fill-rule="evenodd" fill="#231f20"/>

   <path d="m720.8,625.6c-0.405-0.0762-0.9688,0.0776-1.408,0.0249-0.2812-0.0493-0.595,0.1035-0.8438,0.0771-0.4712,0-0.9075,0.0771-1.315-0.102-0.2188-0.1275-0.3125-0.3565-0.3762-0.5606-0.0637-0.3046-0.2838-0.457-0.4075-0.7373-0.1575-0.3569-0.5312-0.5346-1.002-0.6885-0.5325-0.2031-0.9412-0.4081-1.504-0.4081-0.7825-0.0494-1.568-0.1524-2.319,0.0526-0.3448,0.1011-0.5958,0.1011-0.9405,0.2794-0.7529,0.3564-1.472,0.8418-2.069,1.4-0.2192,0.2036-0.3745,0.356-0.5318,0.6109-0.1889,0.2798-0.2831,0.5874-0.3446,0.9175-0.0635,0.1786-0.126,0.3061-0.1572,0.5078-0.0922,0.3838-0.2812,0.7656-0.4062,1.146-0.126,0.3574,0.0943,0.5869-0.126,0.8921-0.2188,0.331-0.125,0.7392-0.0327,1.095,0.0635,0.3565-0.0303,0.688,0.1588,1.045,0.1562,0.3051,0.2818,0.6118,0.314,0.9414,0.062,0.5605,0.3745,0.8916,0.5941,1.375,0.1246,0.2808,0.3448,0.3824,0.5635,0.6621,0.2515,0.3066,0.4082,0.458,0.6895,0.6621,0.313,0.2305,0.5948,0.4585,1.002,0.5595,0.1895,0.0514,0.3145,0.1026,0.5025,0.1788,0.3755,0.1539,0.7833,0.1792,1.19,0.2818,0.4712,0.127,0.9388,0.1514,1.474,0.1514,0.5938,0,1.19-0.102,1.754-0.2031,0.2825-0.0507,0.5338-0.1778,0.7838-0.3061,0.2825-0.1509,0.6575-0.2549,0.815-0.5352,0.1575-0.331,0.0638-0.687,0.095-1.042,0-0.1544-0.095-0.2818-0.0312-0.4849,0.155-0.6611,0.0612-1.273,0.1862-1.961,0.0312-0.2295-0.0612-0.459-0.125-0.7134-0.0612-0.3555,0.1562-0.7372-0.0925-1.042-0.22-0.2818-0.7862-0.0771-0.9412-0.4086h-0.03c0.0912-0.1011,0-0.2794,0.1238-0.3306,0.345-0.1782,0.785-0.0771,1.129-0.0507,0.2188,0.0244,0.3438,0.0244,0.5625,0.0756,0.4062,0.0767,0.7512-0.0249,1.159,0,0.4075,0.0264,0.8438,0.0509,1.22,0,0.3125-0.0249,0.6875-0.102,0.9075,0.0509,0.22,0.1537,0.0625,0.5102,0.03,0.7148,0,0.1519,0.1575,0.3042,0.0937,0.4326-0.0937,0.2031,0,0.4078-0.0287,0.6358-0.0325,0.4068,0.0925,0.8658-0.095,1.223-0.0612,0.1274,0.03,0.3031,0.03,0.4311,0.0325,0.2559-0.0612,0.5356-0.03,0.7651v1.248c0.03,0.4068,0.25,1.042-0.2812,1.274-0.1562,0.0771-0.4388-0.0254-0.6262-0.0254-0.345,0.0254-0.7512,0.1025-1.095,0.2036-0.4062,0.0771-0.72,0.1518-1.065,0.3041-0.3112,0.1529-0.625,0.2031-1,0.356-0.4412,0.1787-0.91,0.1528-1.318,0.2792-0.2812,0.1016-0.5312,0.126-0.845,0.2036-0.6262,0.1519-1.318,0.3306-2.006,0.2784-0.22-0.0245-0.3138-0.0245-0.5325-0.0757-0.565-0.1524-1.191-0.0259-1.756-0.2026-0.3746-0.102-0.75-0.1782-1.127-0.2036-0.251-0.0507-0.3452-0.1519-0.5328-0.2036-0.2818-0.1264-0.6269-0.1522-0.8774-0.3286-0.251-0.1781-0.4062-0.229-0.626-0.4071-0.2515-0.229-0.5968-0.4092-0.9414-0.5865-0.2198-0.1274-0.2818-0.2534-0.4698-0.3564-0.5328-0.3565-0.8145-0.8657-1.221-1.248-0.1568-0.1782-0.188-0.2295-0.3448-0.4326-0.4404-0.7119-0.6894-1.451-0.9101-2.266-0.0615-0.2802-0.0937-0.5112-0.1562-0.79-0.125-0.3819-0.0933-0.7636-0.062-1.172,0-0.2802,0-0.5083,0.1568-0.7372,0.1572-0.23,0-0.484,0.2202-0.7398,0.2495-0.254,0.2158-0.6119,0.311-0.941,0.0952-0.205,0.188-0.2818,0.188-0.5088,0.0322-0.2818,0.4404-0.4849,0.5654-0.7392,0.124-0.2554,0.375-0.459,0.626-0.6114,0.125-0.0766,0.2525-0.1269,0.3159-0.2031,0.0601-0.1035,0.1539-0.1279,0.2481-0.2559,0.3769-0.4068,0.9399-0.687,1.442-0.9931,0.251-0.1524,0.5942-0.2544,0.9078-0.3824,0.3774-0.1269,0.7514-0.1768,1.097-0.3564,0.2188-0.1265,0.377-0.0259,0.4692-0.2041l1.067-0.1274c0.2182-0.1529,0.4385-0.1021,0.6875-0.1021,0.4084-0.0507,0.7859,0.0254,1.128-0.0507,0.3762-0.0761,0.7525-0.1011,1.099-0.0761,0.2488,0.0259,0.5312,0.0259,0.75,0.0761,0.6588,0.1791,1.475,0.102,2.131,0.2559,0.22,0.0756,0.345,0.1524,0.6588,0.1524,0.3125,0.0263,0.5312,0.0761,0.8112,0.1264,0.3775,0.0786,1.099-0.2285,1.224,0.1544,0.0925,0.2798,0.2812,0.4062,0.375,0.662,0.0937,0.2809,0.22,0.5591,0.4062,0.815,0.2512,0.3061,0.3762,0.6616,0.8762,0.8145,0.1262,0.0264,0.2812,0,0.3775,0.0756,0.1562,0.103,0.22,0.3325,0.0312,0.3824-0.1575,0.1025-0.3775,0.0761-0.5975,0.0512" fill-rule="nonzero" fill="#231f20"/>

   <path d="m757.2,637.1c-0.2825,0-0.4375,0.0517-0.7188,0.0259-0.345-0.0259-0.7212-0.1566-1.035-0.0536-0.2812,0.0795-0.4062,0.0536-0.7212,0.1054-0.3125,0.0522-0.7512,0.0786-0.8138-0.312-0.03-0.2295,0-0.4814,0-0.7621,0-0.4326-0.03-0.8652-0.1875-1.297l0.0625-0.0259c-0.3438-0.1768-0.4062-0.5079-0.6875-0.7115-0.6912-0.4834-1.099-1.144-1.726-1.653-0.0625-0.0504-0.1588-0.0504-0.1912-0.128-0.0612-0.2782-0.4038-0.4301-0.5938-0.6601-0.1562-0.2041-0.375-0.33-0.565-0.5088-0.3138-0.2789-0.4375-0.4834-0.8138-0.7622-0.25-0.1788-0.4088-0.4839-0.5962-0.6611-0.22-0.2031-0.4088-0.4078-0.6588-0.585-0.5012-0.3822-0.7538-0.915-1.318-1.221-0.22-0.1275-0.4388-0.6611-0.7525-0.4336-0.3438,0.2559-0.22,0.7638-0.22,1.145,0,0.5098-0.1238,0.9674-0.0612,1.5,0,0.1788-0.0325,0.333,0,0.5084,0.1225,0.4854-0.0625,0.7905,0.0287,1.272,0.0937,0.5348-0.0912,1.069-0.0287,1.578,0.0287,0.2789,0.0287,0.5342,0.0912,0.838,0.0638,0.4589,0.095,0.9916,0.1262,1.476,0,0.3052,0.0312,0.5591,0.1875,0.7886,0.16,0.2544,0.7862,0,0.8788,0.3296,0.03,0.1558,0.1262,0.4165-0.1862,0.4692-0.7538,0.0531-1.504,0.0259-2.188,0.0531-0.6512,0-1.305,0.1026-1.96,0.0504-0.1562,0-0.405-0.1826-0.3738-0.3375,0-0.2602,0.0325-0.4639,0.0325-0.7416,0-0.2295-0.0325-0.586-0.0638-0.8662-0.0312-0.4331,0.0638-0.9414,0.0312-1.348-0.0312-0.3819-0.0625-0.7115-0.0625-1.12,0-0.6611-0.06-1.322-0.06-1.983,0.0312-0.6608,0.0312-1.373-0.0937-2.035,0-0.0507,0.0312-0.1015,0.0312-0.1519,0-0.6108,0-1.145-0.0312-1.755-0.0312-0.4311-0.095-0.915-0.0638-1.323,0-0.1-0.0638-0.2275-0.0638-0.3295,0.0325-0.2539,0.0963-0.4575,0.0963-0.7379,0-0.4066,0-0.8901-0.0638-1.246-0.0325-0.1772-0.1575-0.357-0.345-0.4062-0.3138-0.1026-0.7212-0.0512-0.845-0.357-0.095-0.1778,0.1238-0.3286,0.345-0.3814,0.94-0.2299,1.996,0,2.961-0.1015,0.155,0,0.3738,0.0254,0.5612,0.0254,0.2162,0,0.5588-0.0761,0.7138,0.0512,0.1875,0.1772,0.0937,0.4316,0.2188,0.6606,0.125,0.2804-0.0625,0.6109-0.0312,0.9165,0.0612,0.3301-0.0312,0.7627,0.2175,0.9912,0.22,0.2046,0.3438,0.4078,0.5662,0.585,0.47,0.3295,0.7188,0.7378,1.159,1.094,0.6288,0.5083,1.096,1.119,1.661,1.679,0.4412,0.4318,0.8475,0.8892,1.351,1.247,0.3125,0.253,0.4688,0.5576,0.8125,0.7871,0.1588,0.1279,0.2838,0.3051,0.4425,0.4575,0.4988,0.4336,1.002,1.018,1.629,1.374,0.1262,0.0763,0.315-0.0507,0.345-0.1781,0.1562-0.5328,0-1.092,0.125-1.604,0.0312-0.2281-0.125-0.3277,0-0.5835,0.095-0.127-0.0312-0.253-0.0625-0.4068-0.0925-0.5348-0.2175-1.093-0.125-1.627,0.0625-0.2802,0.0325-0.4326,0.0937-0.7119,0.0625-0.2554,0-0.5348,0-0.7886,0-0.2031-0.0937-0.5082-0.0613-0.7378,0.03-0.2031,0.03-0.3052,0.0613-0.5342,0.0625-0.228-0.0613-0.5088-0.125-0.7641-0.125-0.4575,0.1875-1.017-0.4375-1.32-0.1575-0.0773-0.2512-0.0259-0.3788-0.1031-0.125-0.102-0.4075-0.2544-0.3762-0.4068,0.125-0.3818,0.8475-0.2544,1.224-0.2544,0.3762,0,0.7512-0.0507,1.158-0.0239,0.5325,0.0484,1.13-0.0771,1.63-0.0771,0.2812,0.0259,0.7838,0.0259,0.7838,0.3305,0,0.4575-0.1262,0.8901-0.0962,1.322,0.0312,0.2295-0.0625,0.2295,0.1262,0.4571,0.22,0.3315-0.1562,0.687-0.095,1.095,0.095,0.3819,0.0325,0.6608,0.0325,1.042,0,0.3819,0.125,0.7134,0.125,1.093,0,0.5098,0,0.9174-0.0312,1.451,0,0.2031-0.0312,0.4062,0,0.6099,0.0937,0.4834-0.0612,0.8901,0.0625,1.374,0.1575,0.5347,0.0638,1.044,0.095,1.602,0,0.1275,0.0312,0.2276,0.0625,0.3296,0.0325,0.3306-0.0937,0.6099-0.0625,0.941,0.0625,0.4834-0.0638,0.8398,0.0312,1.297,0.0638,0.2299,0.125,0.2808,0.0925,0.4829-0.0925,0.3056,0.1575,0.3305,0.0638,0.6109-0.0638,0.1537,0.1562,0.3051,0.3438,0.3315,0.2525,0,0.4088,0.1001,0.5638,0.2031,0.095,0.0751,0.1262,0.2544,0,0.3296-0.3438,0.2094-0.8138,0.2352-1.252,0.2094" fill-rule="nonzero" fill="#231f20"/>

   <path d="m692.3,636.9c0.0942-0.1548,0.0942-0.3579-0.0615-0.4106-0.3453-0.102-0.7226-0.0776-1.035-0.2031-0.3145-0.1284-0.7838-0.1792-0.8775-0.459-0.062-0.2559-0.0942-0.3574-0.2188-0.5869-0.126-0.2295-0.251-0.2544-0.377-0.459-0.125-0.1768-0.1884-0.2539-0.3129-0.4326-0.189-0.2802-0.314-0.562-0.5015-0.8404-0.2202-0.3071-0.4072-0.6381-0.6885-0.9179-0.188-0.2041-0.314-0.2559-0.4404-0.5099-0.1554-0.3071-0.3125-0.3564-0.4078-0.6118-0.1865-0.4829-0.5005-0.9185-0.813-1.377-0.1875-0.2818-0.5958-0.5605-0.377-0.8666,0.1265-0.126,0.3448-0.1021,0.5958-0.1524,0.2202-0.0507,0.2818-0.128,0.4375-0.1792,0.377-0.101,0.6909-0.2549,1.034-0.4076,0.502-0.2281,1.004-0.5099,1.318-0.8658,0.625-0.79,1.033-1.683,0.7515-2.727-0.1265-0.4585-0.251-0.8671-0.6265-1.327-0.2192-0.2544-0.3139-0.3809-0.4711-0.6109-0.0928-0.1781-0.4375-0.1532-0.6255-0.2558-0.4078-0.3043-0.9078-0.3043-1.348-0.483-0.2818-0.1279-0.5015-0.0776-0.8452-0.1035-0.2836-0.0244-0.4078-0.0244-0.6895,0-0.4081,0.0517-0.7529-0.0771-1.16-0.0244-0.2818,0-0.4404,0.0244-0.6586,0-0.3452-0.0527-0.5958-0.0259-0.939-0.0259-0.3775,0.0259-0.7856,0.1538-1.192,0.0761-0.1866-0.0259-0.3116,0.0259-0.4682-0.0259-0.3111-0.0503-0.7179,0.0259-1.03,0-0.4052-0.0503-0.9355,0.0517-1.372,0.0517-0.1245,0-0.2202,0.0254-0.3438,0.0254-0.5312-0.0513-1.127-0.1274-1.597,0.1031-0.1245,0.0512-0.0629,0.228-0.2196,0.228v0.0512c0.1269,0.0249,0.1568,0.1538,0.1568,0.2295,0.0629,0.3056,0.4696,0.231,0.7836,0.2549,0.1875,0.0264,0.565,0.2041,0.5005,0.4086-0.0928,0.2028-0.062,0.3068-0.125,0.5348-0.1558,0.5102,0.1572,1.096,0.125,1.631-0.0308,0.4066-0.0308,0.7905-0.0308,1.223,0,0.1035,0.0308,0.2559,0.0308,0.3814,0.0322,0.3838-0.0928,0.79-0.062,1.148,0,0.3311-0.0308,0.5605-0.0308,0.8667,0,0.5346,0.1865,0.9936,0.125,1.529-0.0322,0.102-0.1572,0.2295-0.0942,0.3565,0.062,0.0766-0.0308,0.1781,0,0.2818,0,0.1522-0.0308,0.2798,0,0.4325,0.062,0.6109,0,1.222,0.062,1.809,0.0322,0.2031,0,0.3819,0.0645,0.5346,0.0293,0.1026-0.0645,0.2291-0.0322,0.357,0.0322,0.6372,0.0322,1.326,0.1558,2.041l-0.062,0.1016c0.1558,0.206-0.251,0.4409,0.0292,0.5718,0.4682,0.2041,1.155-0.0264,1.688,0.0522,0.3428,0.0503,0.6548,0.0264,0.9985-0.0264,0.5932-0.0523,1.25,0.1532,1.752-0.1045,0.1558-0.0776,0.1885-0.2085,0.1885-0.3394-0.0635-0.3056-0.5655-0.231-0.8472-0.332-0.2188-0.1284-0.1245-0.3579-0.1865-0.5361-0.0951-0.2295,0.0942-0.561,0-0.7905-0.0951-0.3555,0-0.5845-0.0951-0.942-0.063-0.2558,0.1894-0.4066,0.125-0.664-0.0621-0.2802,0.0321-0.4585-0.0621-0.6621-0.1566-0.3814-0.0629-0.7895-0.0629-1.197,0-0.2812,0.0321-0.5874,0-0.8668,0-0.2045,0.1571-0.3071,0.0321-0.5098-0.0951-0.1538,0.2182-0.1788,0.3438-0.1788,0.1582,0.025,0.2505,0.1788,0.2505,0.2809-0.0308,0.2294,0.314,0.3305,0.377,0.5098,0.0297,0.2275,0.187,0.3812,0.2818,0.5595,0.187,0.3071,0.3448,0.5615,0.6274,0.8419,0.2505,0.2534,0.4692,0.5336,0.626,0.8666,0.0937,0.2807,0.4078,0.3829,0.4698,0.6621,0.063,0.4078,0.2832,0.79,0.5958,1.096,0.3755,0.3066,0.3755,0.5854,0.6264,0.8661,0.125,0.1539,0.2515,0.3058,0.3452,0.483,0.1245,0.308,0.3135,0.6694,0.6572,0.8256,0.5328,0.2344,1.128,0,1.724,0.0527,0.2192,0.0259,0.3448,0.0781,0.5654,0.0781,0.7188,0,1.378-0.0259,2.067-0.1568,0.2818-0.0776,0.7188,0.0786,0.876-0.2349zm-6.049-12.16c0.0649,0.3061,0.0649,0.4341-0.0616,0.7388-0.0634,0.231,0.0322,0.4854,0,0.7393-0.0634,0.2554-0.125,0.5361-0.313,0.7656-0.1562,0.2295-0.3446,0.3048-0.5941,0.4839-0.44,0.3321-0.9728,0.4849-1.536,0.5092-0.6274,0.0504-1.817,0.5362-1.912-0.2035-0.063-0.4341,0.0951-0.8404,0.0321-1.275-0.0321-0.3315-0.063-0.6117-0.0951-0.892-0.0929-0.5094,0.063-0.9932,0.0951-1.505,0-0.3285-0.2505-0.789-0.0321-1.068,0.1894-0.231,0.7514-0.0777,1.033-0.1285,0.315-0.0523,0.565,0.0757,0.9098,0.0507,0.1571,0,0.3125,0.025,0.5326,0.1016,0.251,0.0766,0.3452,0.0766,0.5635,0.1788,0.2525,0.102,0.4092,0.2036,0.5958,0.4081,0.1586,0.1772,0.3125,0.3061,0.4389,0.5347,0.126,0.2309,0.2818,0.2802,0.3434,0.5605" fill-rule="nonzero" fill="#231f20"/>

   <path d="m741.4,629.9c-0.03-0.2031,0.0637-0.4575,0-0.6855-0.0937-0.3058-0.03-0.585-0.1262-0.8668-0.0612-0.2792-0.0913-0.4316-0.155-0.6606-0.03-0.2026-0.1262-0.2798-0.1575-0.4829-0.0937-0.3555-0.3125-0.5084-0.4688-0.7876-0.22-0.4316-0.5025-0.8389-0.845-1.222-0.565-0.6606-1.288-1.219-2.069-1.626-0.3788-0.1772-0.66-0.458-1.066-0.5348-0.4088-0.0756-0.7188-0.2021-1.096-0.3559-0.47-0.1524-0.8462-0.2802-1.349-0.3799-0.815-0.1549-1.661-0.358-2.504-0.2559-0.2538,0.0503-0.345,0.0761-0.5975,0.101-0.7212,0.0773-1.441,0.1285-2.068,0.3575-0.345,0.1264-0.6912,0.2285-1.002,0.3823-0.4712,0.2018-0.9738,0.2789-1.474,0.5347-0.3775,0.2016-0.7838,0.4311-1.159,0.684-0.0937,0.0523-0.1888,0.1026-0.3438,0.2046-0.3438,0.1782-0.6888,0.4311-0.8775,0.7628-0.125,0.2031-0.345,0.228-0.4675,0.4076-0.1575,0.2281-0.2512,0.354-0.4075,0.5586-0.2488,0.3301-0.5012,0.6358-0.7212,0.9668-0.0613,0.128-0.1238,0.1782-0.1862,0.3311-0.0925,0.228-0.2825,0.3305-0.3438,0.5835-0.0625,0.2802-0.0625,0.3564-0.125,0.6114-0.0625,0.3051,0,0.6366-0.125,0.915-0.2188,0.4331-0.0637,0.8399-0.0325,1.297,0.0325,0.1537,0.095,0.331,0.125,0.4819,0.1262,0.5098,0.2188,0.9936,0.5325,1.425,0.1262,0.1781,0.25,0.2559,0.3112,0.4068,0.2212,0.4852,0.6262,0.8661,0.9725,1.272,0.2175,0.2295,0.4038,0.4326,0.595,0.6611,0.2162,0.2305,0.56,0.4062,0.78,0.6119,0.2825,0.2519,0.5012,0.2011,0.7825,0.4814,0.2825,0.2804,0.7212,0.4067,1.16,0.5348,0.3438,0.101,0.5962,0.2031,1.004,0.2818,0.3738,0.0786,0.6888,0.1562,0.9712,0.3656,0.0625,0.0255,0.2175-0.0259,0.28,0,0.3775,0.0538,0.8175,0.0538,1.222,0.0791,1.13,0.0507,2.256,0.0507,3.29-0.1836,0.2812-0.0785,0.4075-0.2339,0.69-0.2875,0.1888-0.0522,0.3438-0.0245,0.5338-0.1031,0.3112-0.1264,0.5-0.3818,0.8438-0.4325,0.535-0.1265,0.69-0.4068,1.161-0.5089,0.3112-0.0503,0.5325-0.2031,0.8138-0.3555,0.44-0.228,0.7212-0.4325,1.004-0.7641,0.1262-0.1509,0.28-0.2539,0.5012-0.4316,0.6888-0.5595,1.285-1.27,1.568-2.059,0.0612-0.1274,0.0612-0.2295,0.155-0.3559,0.2188-0.2554,0.1888-0.6109,0.2188-0.941,0.0638-0.3315,0.3462-0.6361,0.2512-1.018zm-3.916,0.1529c-0.1875,0.5341-0.095,1.119-0.2838,1.653-0.1238,0.3819-0.1562,0.7896-0.4375,1.119-0.1875,0.2286-0.1875,0.3316-0.4075,0.5601-0.2825,0.3301-0.4688,0.6358-0.7188,0.9657-0.1588,0.2046-0.3462,0.3306-0.5338,0.5084-0.4088,0.4834-1.098,0.7636-1.755,0.9668-0.2825,0.1021-0.5962,0.2036-0.9088,0.2295-0.1875,0.0249-0.3762,0-0.5938,0.0249-0.5038,0-1.036,0.1782-1.475,0.0259-0.3438-0.0766-0.5962-0.1522-0.94-0.2802-0.2175-0.0761-0.3125-0.0996-0.5312-0.1768-0.4088-0.1538-0.7225-0.4316-1.066-0.7134-0.25-0.2031-0.4712-0.3804-0.6888-0.585-0.2212-0.2529-0.3762-0.5595-0.565-0.8387-0.1562-0.3058-0.3438-0.5338-0.4712-0.8389-0.28-0.5348-0.5612-1.094-0.625-1.704-0.0312-0.3824-0.0312-0.815-0.0638-1.196-0.0312-0.5346,0.1275-0.916,0.0963-1.451,0-0.585,0.3438-1.143,0.6562-1.652,0.1562-0.2539,0.315-0.5088,0.5338-0.7628,0.1262-0.1509,0.1875-0.3802,0.375-0.5088,0.3775-0.2802,0.5338-0.7129,0.9712-0.8652,0.345-0.1005,0.345-0.5088,0.7838-0.5088,0.3775,0,0.6588-0.2031,1.066-0.3056,0.1875-0.025,0.3438-0.0499,0.5312-0.127,0.0963-0.0756,0.2212-0.0498,0.3462-0.1245,0.4688-0.231,1.066-0.0771,1.598-0.0771l0.25,0.101c0.2212-0.0746,0.3762,0.2276,0.565,0.2276,0.6275-0.025,0.8762,0.3579,1.315,0.5864,0.4712,0.228,0.815,0.6099,1.13,0.9908,0.25,0.3061,0.4675,0.5336,0.75,0.8144,0.1588,0.1772,0.2225,0.4077,0.3125,0.6358,0.0638,0.1529,0.1262,0.2794,0.1588,0.4576,0.0312,0.102,0.0937,0.1532,0.125,0.2802,0.1888,0.6104,0.5012,1.196,0.47,1.83,0,0.2554,0.095,0.4585,0,0.6611l0.0312,0.0768" fill-rule="nonzero" fill="#231f20"/>

   <path d="m734.6,630.4c-0.2038,0.1885-0.2888,0.377-0.4912,0.5176-0.175,0.1186-0.2312,0.3056-0.4312,0.4224-0.1462,0.0933-0.2888,0.142-0.4912,0.0933-0.2612-0.0699-0.2888,0-0.5788-0.1168-0.2012-0.0697-0.3162,0.0235-0.52-0.0239-0.5488-0.0927-1.096-0.211-1.644-0.2807-0.8675-0.1182-1.819-0.4234-2.598,0.0244-0.435,0.2339-0.895,0.2339-1.358,0.2339-0.145-0.0234-0.2025-0.165-0.1725-0.2119,0.2288-0.3765,0.5188-0.7295,0.8062-1.082,0.1462-0.1651,0.115-0.3775,0.2888-0.4951,0.2325-0.188,0.2875-0.2599,0.4912-0.4478,0.2025-0.1885,0.1725-0.4483,0.3762-0.6368,0.1438-0.1178,0.2012-0.2359,0.3162-0.2832,0.5775-0.3041,1.385,0,2.02,0.1426,0.3762,0.0947,0.6638,0.1181,0.9825,0.1655,0.345,0.0704,0.7212,0,0.9812,0.1636,0.2025,0.0946,0.2025,0,0.375,0.0946,0.1462,0.0704,0.3175-0.0224,0.4925,0.0474,0.2875,0.0933,0.5475-0.0239,0.865-0.0697,0.3462-0.0259,0.5775-0.2359,0.8662-0.4718,0.1725-0.165,0.49-0.2114,0.7788-0.2114,0.4062,0,0.4325,0.2349,0.3462,0.4224-0.4312,0.7314-1.096,1.368-1.702,2.003" fill-rule="nonzero" fill="#231f20"/>

   <path d="m773.3,627.7c0-0.2255,0.065-0.4262,0.0325-0.6762,0-0.1509-0.0612-0.3018-0.2512-0.3764-0.22-0.1016-0.44,0.0239-0.6925,0l-0.3762,0.2998c-0.095,0.0766-0.2838,0.0766-0.315,0.2021-0.0625,0.0996-0.2512,0.1509-0.3762,0.2256-0.445,0.4019-5.298,0.2608-6.468,0.3501-0.0588-0.042-0.1212-0.0773-0.18-0.1168-0.6288-0.4551-1.195-0.708-1.854-1.137-0.5662-0.3789-1.131-0.7075-1.76-1.034v-0.1534c-0.22-0.2754-0.3162-0.6806-0.2525-1.009,0.0325-0.2529,0.4075-0.4551,0.6912-0.5796,0.1588-0.0512,0.315-0.0512,0.4725-0.0512,0.2825,0,0.44,0,0.7225,0.0762,0.1888,0.0244,0.3462-0.0499,0.565,0.0244,0.505,0.2016,1.07,0.1524,1.415,0.5566,0.1888,0.2515,0.535,0.2002,0.8175,0.4282,0.315,0.2529,0.5962,0.4795,1.07,0.4286,0.4375-0.0507,0.8475-0.2514,1.32-0.3281,0.595-0.1005,0.9738-0.3535,1.539-0.4535,0.2212-0.0509,0.4088-0.253,0.3462-0.4039-0.1575-0.2774-0.4712-0.481-0.9112-0.6319-0.3788-0.1514-0.5975-0.4795-0.9738-0.6059-0.4425-0.1514-0.8825-0.3281-1.416-0.3281-0.4725,0-0.9412-0.1514-1.444-0.2276l-0.2212,0.025c-0.5338-0.1509-1.13-0.0509-1.698,0-0.1262,0.0264-0.22,0.0264-0.3762,0.0771-0.2525,0.0507-0.5025,0.0244-0.7238,0.1255-0.2512,0.1519-0.4712,0.2529-0.7875,0.2788-0.375,0.0494-0.5338,0.3281-0.8475,0.4272-0.3138,0.1275-0.5975,0.3048-0.88,0.5312-0.4725,0.4044-0.8175,0.9346-0.9762,1.463-0.1238,0.4302-0.345,1.01-0.0613,1.416,0.22,0.3526,0.4088,0.6304,0.7225,0.9835,0.2838,0.3286,0.5975,0.5566,0.9125,0.8325,0.125,0.0756,0.125,0.2016,0.3138,0.2529,0.22,0.0771,0.4725,0.1509,0.5662,0.3286,0.0487,0.0659,0.41,0.1114,0.4512,0.1494l0.9212-0.0205c2.139,0.2149,2.529-0.1522,4.286-0.0854-0.1025,0.102-0.4862,0.0118,4.194-0.0889,0.44,0,0.88-0.0249,1.258-0.0249,0.5988,0,1.164,0.2031,1.352-0.2994-0.0312-0.4498-0.1275-0.7749-0.1275-0.8506" fill-rule="evenodd" fill="#231f20"/>

   <path d="m773.5,631.4c0-0.0756,0-0.1758-0.03-0.6289-0.19-0.0249,0.0937-0.8296-0.0937-0.8048-0.5662,0-1.162,0.0509-1.761,0-0.1275,0-0.22,0.0259-0.3762,0.0259-0.6338-0.0674-3.279,0.0327-3.485,0.0327l0.0312,0.0225c-1.081-0.01-2.672-0.007-2.726-0.0645-0.7762-0.0322-1.234,0.1275-1.452,0.2169,0.5238,0.2831,1.614,0.9892,2.105,1.32,0.41,0.3038,0.5112,0.6319,0.8875,0.9854,0.315,0.2519,1.061,0.5282,1.219,0.9341,0.1575,0.3266,0.3138,0.7816,0.0937,1.085-0.4388,0.5308-1.038,1.035-1.918,0.9854-0.25-0.0259-0.3762,0.1001-0.6575,0.0239-0.3462-0.0746-0.6612-0.1518-0.975-0.1768-0.3788-0.0259-0.5975-0.3276-0.9125-0.3789-0.9438-0.2016-1.415-0.8574-2.201-1.236-0.3138-0.1512-0.5338,0.0772-0.8175,0.126-0.2825,0.025-0.5025,0.2271-0.7862,0.2271-0.2812,0-0.375,0.1264-0.6288,0.2016-0.375,0.102-0.6575,0.2021-0.9425,0.4288-0.3762,0.355,0.1575,0.455,0.3462,0.708,0.1888,0.2529,0.5962,0.3545,0.9125,0.5546,0.125,0.1021,0.3125,0.1534,0.47,0.228,0.3138,0.1519,0.4412,0.4288,0.7862,0.48,0.2212,0.0245,0.3762,0.0758,0.5338,0.1529,0.315,0.1221,0.6288,0.1465,0.9125,0.2451,0.3138,0.1225,0.6925,0.147,1.038,0.2466,0.2512,0.0503,0.4412,0.0244,0.6925-0.025,0.3775-0.0498,0.8488-0.0746,1.258-0.0991,0.44,0,0.7225-0.0736,1.13-0.1719,0.4725-0.0986,0.8175-0.3999,1.258-0.5756,0.22-0.1011,0.3775-0.1265,0.5662-0.228,0.5038-0.2774,1.038-0.6816,1.259-1.136,0.1875-0.3794,0.6575-0.5801,0.8162-0.9326,0.03-0.1524,0.125-0.2534,0.1575-0.353,0.03-0.2789,0.0937-0.5074,0.1888-0.7852,0.0625-0.2514,0.0937-0.5282,0.1562-0.7812,0.0788-0.3666-0.235-0.7089-0.5562-1.026,0.5912-0.0209,0.655-0.0385,0.7712-0.002,0.4075,0.1758,0.8162,0.455,1.131,0.7578h0.1238c0.2838,0.254,0.6612,0.4054,1.071,0.3804,0.595-0.0507,0.4388-0.6069,0.4062-0.9624" fill-rule="evenodd" fill="#231f20"/>

   <path d="m677.1,629.8v1.783c-0.0424,0.6836,0.042,1.402-0.2934,2.018-0.1705,0.3775-0.212,0.6866-0.4224,1.063-0.168,0.3765-0.168,0.6504-0.4234,0.9254-0.5469,0.581-0.9272,1.199-1.644,1.711-0.3799,0.2754-0.7182,0.8233-1.181,1.097-0.4644,0.2735-0.8872,0.5128-1.392,0.7871-0.2119,0.1035-0.3804,0.1378-0.6342,0.2398-0.4639,0.1729-0.9288,0.2402-1.307,0.5151-0.2964,0.1719-0.5488,0.0689-0.7606,0.273-0.379,0.273-0.9272,0.2402-1.392,0.3765-0.3384,0.0684-0.6329,0.0684-0.9702,0.103-0.5074,0.0689-1.013,0.103-1.56,0.2051-0.2554,0.0692-0.4229-0.0333-0.6754,0.0336-0.4639,0.1719-1.054-0.0669-1.562,0.104-0.2935,0.1025-0.4624-0.104-0.7162,0.1025-0.043,0.0689-0.169,0-0.295-0.0346-0.6332-0.0341-1.434,0-2.068,0.0346-0.8812,0-1.967,0.0689-2.886,0.0689-0.5009,0-1.086,0.0342-1.503-0.0689-0.334-0.0688-0.5005,0.1372-0.793,0l-0.4175,0.0689c-0.4199,0-0.9242,0.0342-1.344-0.1035-0.2524-0.0679-0.2949-0.3076-0.3354-0.5136,0-0.5128,0.8399-0.5484,1.26-0.7871,0.4199-0.2046,0.4199-0.6172,0.3774-0.9595-0.0405-0.3418-0.2094-0.6514-0.0834-0.9936,0.1259-0.4106,0.0429-0.3071,0.1259-0.7198,0.2095-0.856,0.2095-1.643,0.0415-2.465-0.0415-0.3764-0.084,0.5758-0.0415,0.1651,0.0415-0.4434,0.0415-0.3419,0.125-0.7545,0.1114-0.4306-0.0697-0.9232-0.145-1.386-0.6655,0.0995-1.409-0.126-1.9,0.3236-0.1391,0.0845-0.3448,0.1406-0.4141,0.2535-0.0336,0.1401-0.2406,0.1401-0.3451,0.2236l-0.4121,0.3384c-0.2764-0.0274-0.5166,0.1142-0.7579,0-0.207-0.084-0.2764-0.253-0.2764-0.4219-0.0336-0.2818,0.0361-0.5054,0.0361-0.7569,0-0.0825-0.1035-0.4355-0.1396-0.9248,0.208-0.5561,0.8281-0.3286,1.481-0.3286,0.414,0,0.8965-0.0259,1.378-0.0259,0.4922-0.0107,0.962-0.008,1.429-0.006,0.7779,0.005,1.541,0.0118,2.358-0.0225,0,0,1.01,0.01,1.498,0.0166,0.4868,0.006,0.3901-0.0112,0.8774,0,0.0699,0.002,0.1289,0.006,0.1905,0.01,0.0566,0.606,0.1904,1.257,0.1518,1.852v0.003c-0.0849,0.6494-0.1679,1.129-0.0849,1.745,0.0429,0.5811-0.083-0.3364,0,0.2456,0.0849,0.6172,0,1.164-0.0415,1.746,0,0.3422,0.2104,0.7201,0.1264,1.027-0.0849,0.3432,0.043,0.5488,0.084,0.8228,0,0.4106-0.2104,0.8906,0.3374,1.131,0.5069,0.2041,1.013-0.0692,1.52-0.0692,0.9272,0.0341,1.771-0.1714,2.613-0.376,0.2969-0.0346,0.4229-0.1378,0.6768-0.2402,0.4629-0.102,0.9698-0.0694,1.393-0.2739,0.3779-0.2402,0.5044-0.3424,0.8428-0.5142,0.2534-0.1704,0.5918-0.2749,0.8866-0.4448,1.138-0.6168,2.151-1.439,2.614-2.398,0.1689-0.4468,0.5072-0.8218,0.5918-1.232,0.126-0.5825,0.252-1.097,0.4644-1.679,0.2534-0.7885,0.2534-1.712,0.2534-2.569,0-0.4432-0.2534-0.9248-0.3384-1.37-0.0415-0.4101-0.2534-0.6489-0.3369-1.026-0.084-0.4462-0.3809-0.8228-0.6744-1.268-0.2119-0.3081-0.1689-0.5141-0.3813-0.7876-0.6749-0.8569-1.602-1.507-2.657-2.124-0.3379-0.2065-0.5489-0.3422-0.8872-0.5138-0.209-0.104-0.4209-0.1361-0.6314-0.2396-0.5902-0.2402-1.097-0.4795-1.687-0.6168-0.3379-0.0689-0.5069-0.0337-0.8022-0.0337-0.4644-0.0351-0.9288-0.1025-1.308-0.2744-0.2954-0.1714-0.5059,0-0.8852,0.0346-0.3799,0-0.5072,0-0.8432,0.067-0.3809,0.1049-0.8448,0.0702-1.013,0.3774-0.1245,0.3081,0.083,0.6519-0.0415,0.9928-0.1675,0.3784,0.1674,1.982,0,2.427-0.083,0.2734,0.1245,0.6509,0.0415,0.9585-0.1974,0.5488-0.0255,0.9165,0.0308,1.444,0.004,0.0327,0.008,0.0625,0.0108,0.0972,0,0.5478-0.0415,0.8906,0.0415,1.439,0.019,0.0933,0.0219,0.1969,0.0205,0.3009-0.5796,0.0234-0.4351,0.002-0.8306,0.0303-0.4081,0.0297-1.134,0.0795-1.397,0-0.2641-0.0781-1.147,0.0492-1.147,0.0492-0.4961,0.0249-1.103-0.0366-1.696-0.0302-0.0654,0-0.1328-0.001-0.1988,0.001-0.4829,0-1.033,0.0566-1.549,0-0.1719,0-0.2749,0.0287-0.4145,0.0287-0.6534-0.0561-1.307,0-1.927,0-0.208,0.0279,0.1021-0.8574-0.1035-0.8862-0.0361-0.497-0.0361-0.6084-0.0361-0.6924-0.0331-0.3915-0.205-1.007,0.4482-1.062,0.4478-0.0283,0.8614,0.1401,1.173,0.4185h0.1368c0.3432,0.3359,0.7915,0.6435,1.24,0.8389,0.1714,0.0551,0.3095,0,0.4814-0.0264,0.2432-0.0454,0.5694-0.0386,0.8335-0.0469,0.005-0.1431,0.009-0.2866,0.001-0.4311,0-0.6514,0.125-1.336,0-1.986-0.043-0.2065,0.0405-0.3081-0.043-0.5141-0.2104-0.6499,0-2.494-0.1245-3.179,0-0.103,0.1245-0.1714,0.0405-0.3081-0.2939-0.5478-1.007-0.4111-1.47-0.7196l0.042-0.0348c0.0415-0.1689-0.2095-0.268-0.169-0.4004,0.2105-0.666,1.346-0.1626,2.057-0.3261,0.334-0.0986,0.6685-0.066,1.044-0.066,0.8345,0.0333,1.837,0.1299,2.754,0.1299,0.376,0.0338,0.7515,0.1656,1.088,0.1324,0.4644-0.0328,0.8022,0,1.224-0.0986,0.4639-0.0664,0.8008-0.0664,1.265-0.0338,0.8012,0.067,1.688-0.0326,2.531,0.1656,0.2119,0.0659,0.3794-0.066,0.5489,0,0.2519,0.1304,0.4214,0.0659,0.7592,0.1304,0.7592,0.1332,1.562,0.1978,2.404,0.1645,0.3795,0,0.4644,0.0664,0.8872,0.1352,0.5474,0.0669,0.9272,0.4101,1.476,0.5136,0.6332,0.1372,1.14,0.5469,1.688,0.8219,0.4209,0.204,0.8442,0.5141,1.182,0.8218,0.5469,0.5479,1.223,0.8228,1.433,1.507,0.0415,0.206,0.1689,0.2387,0.2949,0.5141,0.1689,0.376,0.6762,0.5479,0.8028,0.8901,0.1689,0.4452,0.5488,0.789,0.5902,1.268,0.0415,0.377,0.126,0.7193,0.212,1.061,0.0415,0.3432,0.3354,0.6499,0.2934,0.9931" fill-rule="evenodd" fill="#231f20"/>

   <path d="m669.5,599.1v-1.681c-0.04-0.6462,0.0391-1.326-0.2788-1.908-0.1596-0.3562-0.1982-0.6475-0.3985-1.002-0.1596-0.3562-0.1596-0.615-0.3989-0.875-0.5176-0.5488-0.876-1.131-1.554-1.616-0.3579-0.2588-0.6772-0.7762-1.116-1.035-0.4361-0.2588-0.836-0.485-1.312-0.7425-0.2011-0.0987-0.3612-0.1312-0.6-0.2275-0.4385-0.1612-0.8745-0.2262-1.235-0.485-0.2769-0.1625-0.5171-0.0638-0.7154-0.2588-0.3584-0.2588-0.876-0.225-1.315-0.3562-0.3194-0.065-0.5972-0.065-0.916-0.0962-0.4781-0.065-0.9571-0.0963-1.475-0.1938-0.2388-0.065-0.3985,0.0312-0.6358-0.0338-0.439-0.16-0.9956,0.065-1.475-0.0962-0.2792-0.0975-0.4375,0.0962-0.6762-0.0975-0.04-0.0638-0.1598,0-0.2789,0.0337-0.5991,0.0312-1.355,0-1.953-0.0337-0.833,0-1.858-0.0638-2.726-0.0638-0.4722,0-1.025-0.0338-1.418,0.0638-0.3135,0.065-0.4716-0.1288-0.748,0l-0.395-0.0638c-0.397,0-0.8716-0.0338-1.269,0.0975-0.2372,0.0638-0.2778,0.2912-0.3164,0.4838,0,0.4862,0.7925,0.5175,1.188,0.7438,0.397,0.195,0.397,0.5838,0.3584,0.9062-0.04,0.3238-0.1988,0.6138-0.0806,0.9388,0.1192,0.3862,0.0406,0.29,0.1192,0.6775,0.1991,0.81,0.1991,0.36,0.0405,1.138-0.0405,0.355-0.0791,0.5812-0.0405,0.97,0.0405,0.42,0.0405,0.3225,0.1181,0.7112,0.105,0.4075-0.0655,0.8712-0.1368,1.309-0.6279-0.0937-1.329,0.12-1.794-0.305-0.1314-0.08-0.3262-0.1325-0.3906-0.2388-0.0333-0.1338-0.2281-0.1338-0.3258-0.2112l-0.3906-0.32c-0.2588,0.0275-0.4868-0.1062-0.7149,0-0.1962,0.08-0.2608,0.2388-0.2608,0.3975-0.0316,0.2675,0.0342,0.4788,0.0342,0.715,0,0.0788-0.0981,0.4112-0.1319,0.8738,0.1954,0.525,0.7808,0.3088,1.399,0.3088,0.3902,0,0.8452,0.0263,1.3,0.0263,0.4639,0.01,0.9096,0.009,1.35,0.006,0.7334-0.005,1.456-0.0113,2.226,0.02,0,0,0.9546-0.009,1.415-0.015,0.4599-0.005,0.3676,0.0113,0.8276,0,0.0659-0.001,0.121-0.005,0.1796-0.009,0.0538-0.5725,0.1811-1.186,0.144-1.75v-0.001c-0.0795-0.6125-0.1581-1.066-0.0795-1.646,0.039-0.5512-0.0786-0.8088,0-1.36,0.0795-0.58,0,0.0937-0.0401-0.4562,0-0.3238,0.1988-0.68,0.1196-0.97-0.0795-0.3238,0.0401-0.5175,0.0791-0.7762,0-0.3888-0.1988-0.84,0.3194-1.068,0.4775-0.1938,0.9565,0.065,1.434,0.065,0.8764-0.0338,1.673,0.1625,2.469,0.355,0.2802,0.0325,0.3994,0.13,0.6381,0.225,0.4375,0.0987,0.917,0.0675,1.314,0.26,0.3589,0.2275,0.4795,0.3238,0.7969,0.485,0.2392,0.1625,0.5586,0.2588,0.8374,0.4212,1.075,0.5825,2.032,1.356,2.47,2.264,0.1601,0.4212,0.478,0.7762,0.5571,1.164,0.1206,0.55,0.2388,1.036,0.437,1.586,0.2408,0.7425,0.2408,1.618,0.2408,2.425,0,0.42-0.2408,0.8712-0.3184,1.294-0.0415,0.3875-0.2388,0.615-0.3209,0.97-0.0776,0.4212-0.3579,0.7762-0.6358,1.196-0.1986,0.2925-0.1596,0.4862-0.3584,0.7438-0.6371,0.81-1.515,1.424-2.51,2.006-0.3192,0.1938-0.5175,0.3225-0.8369,0.485-0.1988,0.095-0.399,0.1275-0.5976,0.225-0.5581,0.2262-1.035,0.4525-1.592,0.5825-0.3192,0.065-0.4775,0.0337-0.7568,0.0337-0.439,0.0312-0.8765,0.0963-1.235,0.2575-0.2784,0.1625-0.478,0-0.8365-0.0325-0.3598,0-0.479,0-0.7969-0.065-0.3584-0.0975-0.7969-0.0637-0.955-0.355-0.1201-0.2912,0.0786-0.615-0.0405-0.9375-0.1572-0.3562,0.1581-0.745,0-1.165-0.0796-0.2588,0.1191-1.808,0.0405-2.096-0.187-0.52-0.0235-0.8675,0.0292-1.366,0.004-0.03,0.008-0.0588,0.009-0.0912,0-0.5175-0.0385-0.8412,0.0401-1.359,0.0175-0.0875,0.019-0.185,0.0175-0.2838-0.5488-0.0225-0.4086-0.003-0.7831-0.0288-0.3852-0.0287-1.071-0.075-1.319,0-0.248,0.0738-1.084-0.045-1.084-0.045-0.4668-0.0237-1.04,0.0338-1.601,0.0275-0.0611,0-0.1241,0-0.1875-0.003-0.4546,0-0.9756-0.0537-1.464,0-0.1611,0-0.2589-0.025-0.3892-0.025-0.6171,0.0512-1.235,0-1.82,0-0.1959-0.0287,0.0961,0.8088-0.0981,0.8362-0.0337,0.4675-0.0337,0.5738-0.0337,0.6538-0.0323,0.37-0.1944,0.95,0.4244,1.002,0.4209,0.0263,0.813-0.1325,1.105-0.395h0.129c0.3256-0.3175,0.7485-0.6075,1.171-0.7938,0.1626-0.0512,0.2925,0,0.4551,0.0263,0.2304,0.0412,0.538,0.0362,0.7875,0.0425,0.005,0.1362,0.009,0.2712,0.001,0.4088,0,0.6162,0.1186,1.261,0,1.875-0.04,0.195,0.0376,1.484-0.04,1.679-0.1998,0.615,0,1.229-0.1191,1.876,0,0.0962,0.1191,0.1612,0.04,0.2912-0.2779,0.5162-0.9526,0.3875-1.389,0.6788l0.04,0.0338c0.04,0.1575-0.1982,0.2525-0.1596,0.375,0.1996,0.6312,1.27,0.1562,1.942,0.3112,0.3164,0.0925,0.6309,0.0612,0.9849,0.0612,0.789-0.0312,1.734-0.1225,2.601-0.1225,0.3545-0.0312,0.7105-0.1562,1.028-0.1262,0.4375,0.0325,0.7568,0,1.155,0.095,0.4385,0.0612,0.7569,0.0612,1.195,0.0312,0.7569-0.065,1.593,0.03,2.39-0.1562,0.1996-0.0612,0.3584,0.0625,0.5175,0,0.2392-0.1238,0.3975-0.0612,0.7169-0.1238,0.7178-0.125,1.475-0.1875,2.272-0.155,0.3584,0,0.4375-0.0637,0.8359-0.1262,0.5185-0.0638,0.8775-0.3888,1.394-0.4862,0.5972-0.1288,1.078-0.5175,1.595-0.775,0.3985-0.1962,0.7945-0.485,1.114-0.7762,0.5191-0.5175,1.155-0.7775,1.356-1.424,0.0386-0.1938,0.1582-0.2262,0.2788-0.485,0.1582-0.355,0.6372-0.5175,0.7569-0.8412,0.1598-0.42,0.5181-0.7438,0.5586-1.196,0.0386-0.355,0.1186-0.6788,0.1982-1.002,0.04-0.3238,0.3179-0.6138,0.2788-0.9388" fill-rule="evenodd" fill="#231f20"/>

   <path d="m782.1,598c0-0.2125,0.0588-0.4012,0.0275-0.6362,0-0.1438-0.0588-0.285-0.2362-0.355-0.205-0.095-0.4138,0.0237-0.6475,0l-0.3575,0.2825c-0.0862,0.0725-0.2638,0.0725-0.2938,0.1888-0.0588,0.095-0.2362,0.1412-0.3562,0.2125-0.4162,0.3775-4.975,0.245-6.075,0.3275-0.0563-0.0375-0.115-0.07-0.17-0.1088-0.5912-0.4262-1.122-0.665-1.741-1.068-0.5325-0.3562-1.065-0.6638-1.655-0.9725v-0.1425c-0.2062-0.26-0.295-0.6412-0.235-0.9488,0.0288-0.2375,0.3812-0.4275,0.65-0.545,0.1475-0.0487,0.2938-0.0487,0.4425-0.0487,0.265,0,0.4138,0,0.68,0.0712,0.1775,0.0237,0.3225-0.0475,0.53,0.0237,0.4725,0.1888,1.004,0.1438,1.329,0.5225,0.1762,0.2375,0.5038,0.19,0.7688,0.4025,0.2962,0.2375,0.5612,0.4525,1.005,0.4038,0.4125-0.0487,0.7962-0.2375,1.241-0.3075,0.5612-0.0962,0.915-0.3325,1.446-0.4275,0.2062-0.0475,0.385-0.2375,0.325-0.3812-0.1462-0.2588-0.4425-0.45-0.8562-0.5912-0.3538-0.1425-0.5612-0.4512-0.915-0.57-0.4125-0.1412-0.8288-0.3075-1.331-0.3075-0.4412,0-0.8838-0.1438-1.358-0.215l-0.2062,0.025c-0.5038-0.1438-1.064-0.0475-1.595,0-0.1188,0.0225-0.2062,0.0225-0.355,0.07-0.2362,0.0475-0.4725,0.025-0.6788,0.12-0.2375,0.1425-0.445,0.2375-0.7412,0.26-0.3525,0.0475-0.4988,0.3088-0.7975,0.4025-0.2938,0.1188-0.5588,0.2862-0.825,0.4988-0.4425,0.38-0.77,0.8788-0.915,1.375-0.12,0.405-0.3262,0.95-0.06,1.329,0.205,0.3338,0.3838,0.595,0.68,0.925,0.265,0.3088,0.5612,0.5238,0.8575,0.785,0.1175,0.07,0.1175,0.1875,0.2938,0.2362,0.2075,0.0725,0.445,0.1425,0.5312,0.3075,0.0462,0.0625,0.3862,0.1062,0.425,0.1412l0.8662-0.0188c2.01,0.2,2.375-0.1425,4.026-0.08-0.0975,0.0937-0.4575,0.01,3.94-0.0838,0.415,0,0.8288-0.0225,1.185-0.0225,0.5588,0,1.091,0.1888,1.269-0.2825-0.0312-0.4225-0.1175-0.7275-0.1175-0.7975" fill-rule="evenodd" fill="#231f20"/>

   <path d="m782.3,601.5c0-0.0712,0-0.1662-0.03-0.5925-0.1762-0.0225,0.0888-0.7788-0.0888-0.755-0.5312,0-1.091,0.0475-1.654,0-0.1188,0-0.2075,0.0238-0.3562,0.0238-0.5925-0.0638-3.079,0.0312-3.271,0.0312l0.0287,0.0187c-1.016-0.008-2.511-0.006-2.561-0.06-0.7312-0.0287-1.161,0.1212-1.366,0.2025,0.4912,0.2688,1.514,0.9338,1.978,1.242,0.3862,0.2862,0.4812,0.5938,0.835,0.9262,0.295,0.2362,0.9962,0.4975,1.146,0.8775,0.1475,0.3088,0.2938,0.7362,0.0875,1.019-0.4138,0.5-0.9738,0.9738-1.801,0.9262-0.2362-0.0237-0.355,0.0937-0.62,0.025-0.3238-0.0725-0.6225-0.1438-0.915-0.1662-0.3562-0.025-0.5638-0.31-0.8575-0.3562-0.885-0.1912-1.33-0.8062-2.069-1.162-0.295-0.1425-0.5025,0.0712-0.7662,0.1175-0.2675,0.025-0.4738,0.2125-0.7388,0.2125-0.2662,0-0.355,0.1212-0.5912,0.1925-0.355,0.0937-0.62,0.1888-0.8862,0.4025-0.355,0.3312,0.1475,0.4275,0.325,0.6625,0.1775,0.2388,0.5612,0.335,0.8575,0.5238,0.1188,0.0937,0.295,0.1425,0.4425,0.2138,0.295,0.1412,0.4125,0.4038,0.7375,0.4512,0.2062,0.0225,0.3538,0.07,0.5038,0.1412,0.2925,0.1162,0.5888,0.14,0.855,0.2312,0.2962,0.1162,0.65,0.1388,0.9738,0.2312,0.2362,0.0488,0.4138,0.025,0.65-0.0225,0.355-0.0462,0.7975-0.07,1.182-0.0925,0.4138,0,0.68-0.07,1.065-0.1625,0.4412-0.0925,0.7662-0.3738,1.181-0.5425,0.2062-0.0937,0.3525-0.1175,0.5312-0.2125,0.4725-0.26,0.975-0.64,1.18-1.066,0.1788-0.3562,0.6212-0.5475,0.7688-0.8788,0.03-0.1412,0.12-0.2362,0.1475-0.3312,0.03-0.2612,0.09-0.475,0.1775-0.7362,0.0587-0.2362,0.0875-0.4975,0.1488-0.735,0.0738-0.345-0.2212-0.6662-0.525-0.965,0.5575-0.02,0.6162-0.0375,0.7238-0.001,0.3862,0.1662,0.77,0.4275,1.065,0.7125h0.1188c0.265,0.2388,0.62,0.38,1.004,0.3562,0.56-0.0475,0.4138-0.57,0.3838-0.9025" fill-rule="evenodd" fill="#231f20"/>

   <path d="m688.2,606.8c-0.4712,0.1962-0.9419,0.1962-1.472,0.1712-0.2949,0-0.3246,0-0.5888-0.0237-0.2374-0.0238-0.3839,0.0237-0.5919,0.0487-0.4414,0.05-0.9135-0.0975-1.326,0.025-0.2349,0.05-0.4708-0.1475-0.4429-0.3438,0.0312-0.2625,0.0312-0.4538,0-0.6925-0.0279-0.1675-0.3228-0.215-0.5294-0.1188-0.4121,0.19-0.7959,0.4525-1.267,0.62-0.4415,0.1425-0.9136,0.2162-1.326,0.3875-0.5005,0.1975-1.002,0.3188-1.532,0.2938-0.6773-0.0237-1.296,0-1.944-0.0712-0.146-0.025-0.295,0.0225-0.4116-0.05l-0.9449-0.075c-0.146-0.2212-0.5283-0.0237-0.7055-0.195-0.2656-0.2662-0.6188-0.0737-0.8238-0.3138-0.148-0.1662-0.2955-0.1438-0.4728-0.2388-0.2626-0.1675-0.4399-0.2862-0.7929-0.4062-0.441-0.1675-0.6762-0.5975-0.9419-0.955-0.2935-0.4062-0.5581-0.74-0.7632-1.146-0.1475-0.2862-0.2364-0.5738-0.2656-0.8612,0-0.2138,0.0591-0.4538,0.0293-0.6925-0.0575-0.4525-0.0293-0.8838-0.1166-1.312-0.0591-0.3112,0.0283-0.6212-0.0307-0.955-0.0284-0.2412,0-0.55-0.0576-0.8375-0.0312-0.31-0.0312-0.5262,0.0293-0.86,0.0284-0.215,0-0.2625,0.0284-0.4788,0.0899-0.9062-0.148-1.862-0.0576-2.77,0-0.2388-0.0591-0.31,0.0293-0.525,0.0874-0.2388-0.1196-0.5012-0.3832-0.645-0.1758-0.0725-0.6186,0.0712-0.5879-0.1912,0.0278-0.215-0.1788-0.5025,0.2349-0.5262,1.118-0.095,2.324-0.1425,3.53-0.1188l0.5005-0.0475c0.205,0.0475,0.4698,0.0237,0.4414,0.2638-0.0308,0.285-0.1176,0.5475-0.0591,0.835,0.0284,0.3812-0.0308,0.74,0.0591,1.051,0.0874,0.2388,0.0284,0.43,0.0576,0.6688,0.0596,0.4538-0.0884,0.86-0.0293,1.312,0.0293,0.3362,0.0293,0.645,0.059,0.9562,0,0.4775-0.1181,0.9312-0.1181,1.386,0.0307,0.31,0.148,0.5725,0.148,0.9075,0.0293,0.4762-0.0596,0.86-0.0596,1.338,0,0.31,0.1181,0.5738,0.148,0.8362,0.0292,0.405,0.1166,0.5962,0.2065,0.9312,0.0312,0.1188,0.0591,0.2625,0.1181,0.3825,0.2344,0.3588,0.5591,0.6688,0.8829,0.955,0.2656,0.2638,0.4726,0.5012,0.7959,0.645,0.147,0.0487,0.147,0.1425,0.2656,0.1662,0.2344,0.0725,0.353,0.1688,0.6772,0.215,0.2065,0.025,0.2939,0.0725,0.4429,0.0975,0.5298,0.1175,1.06-0.05,1.62,0,0.2641,0.0475,0.4121-0.025,0.6778-0.0725,0.2358-0.0488,0.3822-0.2638,0.6474-0.2875,0.4429-0.07,0.6778-0.31,1.062-0.4312,0.2949-0.0937,0.5-0.4038,0.7656-0.5712,0.3251-0.215,0.4419-0.3825,0.5595-0.67,0.1181-0.2138,0.0889-0.285,0.0292-0.5725-0.0585-0.2625,0.0596-0.4538,0.1172-0.7162,0.0899-0.43-0.2349-0.9788-0.1172-1.432,0.0299-0.2388,0.148-0.3112,0.1172-0.55-0.0874-0.3338,0-0.5012-0.0874-0.7888-0.0591-0.2625-0.0591-0.5725-0.0591-0.8362,0-0.2862,0.1181-0.6212,0.0889-0.9075-0.0298-0.1675,0.0293-0.2625,0-0.4062-0.148-0.4788-0.2364-1.05-0.1181-1.505,0.0585-0.215,0-0.2388,0.0585-0.4775,0.148-0.5725,0.0299-1.194-0.1767-1.791-0.1181-0.4312-0.9135-0.12-0.8549-0.645,0.0297-0.12,0.059-0.2625,0.1772-0.335,0.4721-0.1912,1.03-0.1675,1.503-0.095,0.2656,0.0238,0.4136,0.0475,0.6494,0.0475,0.1759-0.0237,0.2935-0.0237,0.441-0.0237,0.4414,0,0.7665,0,1.18-0.0238,0.2656-0.025,0.4116,0.1912,0.4116,0.3588,0,0.3588,0.0298,0.5488,0,0.9075,0,0.3112-0.0287,0.5738,0.0298,0.8838,0.0591,0.2625,0.0591,0.55,0.0889,0.8125,0.0586,0.43,0,0.8838-0.0298,1.312-0.0292,0.2625-0.0591,0.3825,0,0.6225,0.1181,0.3575,0.0884,0.6925,0.1181,1.05,0.0591,0.43-0.0297,0.8838,0.0299,1.265,0.0585,0.3588,0.0585,0.67,0.0293,1.051-0.0293,0.43,0,0.6712,0.0292,1.1,0,0.43-0.0585,0.6925,0.0596,1.122,0.0288,0.1925-0.1181,0.3812-0.0596,0.5488,0.0596,0.2162,0.0299,0.4075,0.0299,0.6212-0.0299,0.43-0.2066,1.029,0.0585,1.385,0.1172,0.1675,0.2945,0.2638,0.5601,0.2875,0.1758,0.0238,0.4414,0.0475,0.5,0.2162,0.0595,0.1662,0.0282,0.4062-0.1768,0.5038" fill-rule="nonzero" fill="#231f20"/>

   <path d="m767.1,606.9c-0.2638,0-0.4112,0.0475-0.675,0.0225-0.325-0.0225-0.6775-0.1462-0.9712-0.0475-0.265,0.0725-0.3825,0.0475-0.6775,0.0975-0.2938,0.0488-0.705,0.0738-0.7662-0.2912-0.0275-0.2175,0-0.455,0-0.7188,0-0.405-0.0275-0.8125-0.1762-1.218l0.06-0.0238c-0.3238-0.1688-0.3825-0.4775-0.6475-0.67-0.6488-0.455-1.031-1.076-1.62-1.552-0.06-0.0475-0.1475-0.0475-0.1775-0.12-0.0587-0.2625-0.3838-0.4062-0.5612-0.6212-0.1475-0.1912-0.3525-0.3112-0.5312-0.4775-0.2938-0.2638-0.4138-0.455-0.7638-0.7175-0.2388-0.1675-0.3838-0.4525-0.56-0.6225-0.2075-0.19-0.3838-0.3812-0.62-0.5475-0.4725-0.3588-0.7088-0.86-1.239-1.148-0.2062-0.1188-0.4112-0.6225-0.7062-0.4075-0.3238,0.24-0.2075,0.7188-0.2075,1.076,0,0.4788-0.1162,0.9088-0.0575,1.41,0,0.1662-0.0288,0.31,0,0.4775,0.1175,0.4538-0.0588,0.7412,0.03,1.195,0.0875,0.5025-0.0888,1.004-0.03,1.482,0.03,0.2625,0.03,0.5012,0.0888,0.7875,0.0587,0.4312,0.0875,0.9325,0.1188,1.386,0,0.2875,0.025,0.5262,0.175,0.7412,0.1475,0.24,0.7375,0,0.825,0.31,0.0287,0.1462,0.1175,0.3912-0.1762,0.4412-0.7062,0.0488-1.412,0.0237-2.055,0.0488-0.615,0-1.228,0.0962-1.84,0.05-0.1488,0-0.3825-0.1725-0.3512-0.3212,0-0.2412,0.0287-0.4338,0.0287-0.6962,0-0.2162-0.0287-0.55-0.06-0.8138-0.0275-0.405,0.06-0.8838,0.0312-1.265-0.0312-0.3588-0.0588-0.6688-0.0588-1.052,0-0.6212-0.0588-1.241-0.0588-1.862,0.0288-0.6225,0.0288-1.292-0.0888-1.914,0-0.0463,0.03-0.0937,0.03-0.1425,0-0.5738,0-1.075-0.03-1.648-0.03-0.4075-0.0875-0.8612-0.0587-1.242,0-0.0963-0.06-0.2162-0.06-0.3112,0.0312-0.24,0.0888-0.43,0.0888-0.6938,0-0.3812,0-0.8362-0.0575-1.17-0.0312-0.1688-0.1475-0.335-0.3238-0.3825-0.295-0.095-0.6788-0.0475-0.7962-0.335-0.0875-0.1675,0.1175-0.3112,0.325-0.3575,0.8825-0.215,1.879,0,2.784-0.095,0.1462,0,0.3512,0.0225,0.5262,0.0225,0.2038,0,0.525-0.0713,0.6712,0.0487,0.1762,0.1675,0.0888,0.405,0.205,0.6212,0.1175,0.2638-0.0588,0.5712-0.0287,0.86,0.0562,0.31-0.03,0.7162,0.2038,0.9325,0.2075,0.19,0.325,0.3812,0.53,0.5488,0.4438,0.3112,0.6775,0.6925,1.09,1.028,0.5925,0.4775,1.032,1.051,1.564,1.576,0.4138,0.4075,0.7975,0.8375,1.268,1.171,0.295,0.2388,0.4425,0.5262,0.7675,0.74,0.1475,0.12,0.2638,0.2875,0.4112,0.4312,0.4725,0.405,0.9438,0.955,1.532,1.29,0.1162,0.0725,0.295-0.0475,0.3238-0.1662,0.1475-0.5025,0-1.029,0.1188-1.506,0.0288-0.215-0.1188-0.3112,0-0.55,0.0875-0.1188-0.0312-0.2388-0.06-0.3825-0.0875-0.5012-0.2062-1.028-0.1175-1.529,0.0588-0.2625,0.03-0.4062,0.0875-0.6688,0.0587-0.24,0-0.5012,0-0.7412,0-0.1912-0.0875-0.4775-0.0575-0.6925,0.0287-0.19,0.0287-0.2862,0.0575-0.5025,0.0587-0.215-0.0575-0.4788-0.1162-0.7162-0.12-0.4312,0.175-0.955-0.4125-1.242-0.1488-0.0712-0.2375-0.0237-0.355-0.0962-0.1162-0.095-0.3825-0.2375-0.3525-0.3812,0.1175-0.36,0.795-0.2388,1.149-0.2388,0.3538,0,0.705-0.0475,1.089-0.025,0.5,0.0488,1.059-0.0712,1.531-0.0712,0.265,0.0238,0.7338,0.0238,0.7338,0.3112,0,0.43-0.1188,0.8362-0.0875,1.241,0.03,0.2162-0.0587,0.2162,0.1188,0.43,0.2062,0.31-0.15,0.6462-0.0888,1.028,0.0888,0.3588,0.0287,0.6225,0.0287,0.98,0,0.3588,0.1175,0.67,0.1175,1.028,0,0.4775,0,0.86-0.03,1.364,0,0.19-0.0275,0.3812,0,0.5725,0.0913,0.455-0.0587,0.835,0.06,1.29,0.1475,0.5012,0.06,0.9788,0.0875,1.506,0,0.1188,0.0312,0.2138,0.06,0.31,0.03,0.31-0.0875,0.5725-0.06,0.885,0.06,0.4538-0.0562,0.7862,0.0312,1.218,0.0588,0.2162,0.1175,0.2625,0.0862,0.455-0.0862,0.285,0.1475,0.31,0.06,0.5725-0.06,0.145,0.1475,0.2875,0.3238,0.3112,0.235,0,0.3825,0.095,0.53,0.1912,0.0888,0.07,0.1175,0.24,0,0.31-0.3238,0.1962-0.7662,0.2188-1.179,0.1962" fill-rule="nonzero" fill="#231f20"/>

   <path d="m703,606.9c-0.2636,0-0.4106,0.0475-0.6758,0.0225-0.3232-0.0225-0.6754-0.1462-0.9718-0.0475-0.2631,0.0725-0.3809,0.0475-0.6742,0.0975-0.2959,0.0488-0.7075,0.0738-0.7671-0.2912-0.0274-0.215,0-0.455,0-0.7175,0-0.4062-0.0274-0.8138-0.1768-1.219l0.0605-0.0238c-0.3246-0.1688-0.3838-0.4775-0.6484-0.67-0.649-0.455-1.031-1.076-1.622-1.552-0.059-0.0475-0.146-0.0475-0.1768-0.12-0.0595-0.2625-0.3822-0.4062-0.5581-0.6212-0.1489-0.1912-0.3554-0.3112-0.5326-0.4775-0.294-0.2638-0.4121-0.455-0.7648-0.7175-0.2362-0.1675-0.3838-0.4525-0.5615-0.6225-0.205-0.19-0.3832-0.3812-0.6181-0.5475-0.4721-0.3588-0.707-0.86-1.237-1.148-0.2076-0.1188-0.4131-0.6212-0.7081-0.4075-0.3222,0.24-0.205,0.7188-0.205,1.076,0,0.4788-0.1172,0.9088-0.0596,1.41,0,0.1662-0.0293,0.31,0,0.4775,0.1182,0.4538-0.0576,0.7412,0.0279,1.195,0.0904,0.5025-0.0855,1.004-0.0279,1.482,0.0279,0.2625,0.0279,0.5012,0.0874,0.7875,0.0591,0.4312,0.0885,0.9325,0.1178,1.386,0,0.2875,0.0298,0.5262,0.1778,0.7412,0.1474,0.24,0.7362,0,0.8246,0.31,0.0294,0.1462,0.1182,0.3912-0.1758,0.4412-0.7085,0.0488-1.413,0.0237-2.055,0.0488-0.6132,0-1.228,0.0962-1.841,0.05-0.1465,0-0.3794-0.1725-0.35-0.3212,0-0.2412,0.0283-0.4338,0.0283-0.6962,0-0.2162-0.0283-0.55-0.0576-0.8138-0.0298-0.405,0.0576-0.8838,0.0294-1.265-0.0294-0.3588-0.0591-0.6688-0.0591-1.052,0-0.6212-0.0576-1.241-0.0576-1.862,0.0282-0.6225,0.0282-1.292-0.0884-1.914,0-0.0463,0.0293-0.0937,0.0293-0.1425,0-0.5738,0-1.075-0.0293-1.648-0.0312-0.4075-0.0899-0.8612-0.0591-1.242,0-0.0963-0.059-0.2162-0.059-0.3112,0.0282-0.24,0.0869-0.43,0.0869-0.6938,0-0.3812,0-0.8362-0.0586-1.17-0.0282-0.1688-0.1465-0.335-0.3222-0.3825-0.2949-0.095-0.6772-0.0475-0.7954-0.335-0.0884-0.1675,0.1181-0.3112,0.3246-0.3575,0.8829-0.215,1.876,0,2.782-0.095,0.147,0,0.3501,0.0225,0.5264,0.0225,0.2056,0,0.5274-0.0713,0.6724,0.0487,0.1752,0.1675,0.0884,0.405,0.2051,0.6212,0.1166,0.2638-0.0591,0.5712-0.0299,0.86,0.0581,0.31-0.0292,0.7162,0.2061,0.9325,0.205,0.19,0.3232,0.3812,0.5292,0.5488,0.4429,0.3112,0.6778,0.6925,1.09,1.028,0.5904,0.4775,1.031,1.051,1.562,1.576,0.4146,0.4075,0.7969,0.8375,1.27,1.171,0.2935,0.2388,0.441,0.5262,0.7661,0.74,0.146,0.12,0.2646,0.2875,0.4121,0.4312,0.4708,0.405,0.9429,0.955,1.533,1.29,0.1166,0.0725,0.2939-0.0475,0.3238-0.1662,0.1474-0.5025,0-1.029,0.1176-1.506,0.0298-0.215-0.1176-0.3112,0-0.55,0.0874-0.1188-0.0308-0.2388-0.0591-0.3825-0.0884-0.5012-0.206-1.028-0.1176-1.529,0.0591-0.2625,0.0293-0.4062,0.0879-0.6688,0.0581-0.24,0-0.5012,0-0.7412,0-0.1912-0.0879-0.4775-0.0586-0.6925,0.0299-0.19,0.0299-0.2862,0.0586-0.5025,0.0581-0.215-0.0586-0.4788-0.1176-0.7162-0.1182-0.4312,0.1758-0.955-0.4121-1.242-0.149-0.0712-0.2359-0.0237-0.3535-0.0962-0.1172-0.095-0.3824-0.2375-0.3545-0.3812,0.1191-0.36,0.7954-0.2388,1.15-0.2388,0.3525,0,0.706-0.0475,1.09-0.025,0.4985,0.0488,1.058-0.0712,1.527-0.0712,0.2661,0.0238,0.7374,0.0238,0.7374,0.3112,0,0.43-0.1186,0.8362-0.0874,1.241,0.0277,0.2162-0.0606,0.2162,0.1161,0.43,0.2056,0.31-0.1474,0.6462-0.0884,1.028,0.0884,0.3588,0.0299,0.6225,0.0299,0.98,0,0.3588,0.1181,0.67,0.1181,1.028,0,0.4775,0,0.86-0.0312,1.364,0,0.19-0.0284,0.3812,0,0.5725,0.0904,0.455-0.0571,0.835,0.0605,1.29,0.1465,0.5012,0.0576,0.9788,0.0889,1.506,0,0.1188,0.0279,0.2138,0.0576,0.31,0.0294,0.31-0.0889,0.5725-0.0576,0.885,0.0576,0.4538-0.059,0.7862,0.0279,1.218,0.0591,0.2162,0.1181,0.2625,0.0904,0.455-0.0904,0.285,0.1445,0.31,0.0585,0.5725-0.0585,0.145,0.1465,0.2875,0.3222,0.3112,0.2374,0,0.3839,0.095,0.5312,0.1912,0.087,0.0725,0.1182,0.24,0,0.31-0.3246,0.1962-0.7675,0.2188-1.18,0.1962" fill-rule="nonzero" fill="#231f20"/>

   <path d="m751.9,600.2c-0.0287-0.1912,0.0588-0.43,0-0.6462-0.0862-0.285-0.0287-0.5488-0.1175-0.8112-0.06-0.2638-0.0875-0.4075-0.1475-0.6225-0.0275-0.1888-0.1175-0.2625-0.1475-0.4538-0.0875-0.3338-0.2925-0.4775-0.4412-0.74-0.2062-0.4075-0.4712-0.7888-0.7962-1.148-0.5288-0.6212-1.206-1.148-1.941-1.529-0.355-0.1688-0.6188-0.4312-1.002-0.5025-0.3825-0.0725-0.6762-0.19-1.03-0.335-0.4412-0.1425-0.7938-0.2625-1.268-0.3588-0.7625-0.1425-1.558-0.335-2.354-0.2388-0.2362,0.0475-0.325,0.0713-0.56,0.0963-0.6775,0.0712-1.355,0.12-1.944,0.3338-0.325,0.1188-0.6462,0.215-0.9412,0.3588-0.4425,0.1912-0.9112,0.2625-1.386,0.5025-0.3525,0.1912-0.7325,0.405-1.088,0.645-0.0887,0.0475-0.1762,0.0962-0.3225,0.19-0.3238,0.1688-0.6475,0.4075-0.8225,0.7175-0.12,0.1912-0.3238,0.215-0.4425,0.3825-0.1462,0.215-0.2362,0.335-0.3825,0.5262-0.235,0.31-0.4688,0.5975-0.675,0.9075-0.06,0.12-0.1188,0.1675-0.1762,0.3112-0.0888,0.215-0.2662,0.31-0.3238,0.5488-0.0587,0.2625-0.0587,0.335-0.1175,0.575-0.06,0.285,0,0.5962-0.1188,0.86-0.205,0.405-0.0588,0.7875-0.0275,1.219,0.0275,0.1425,0.0862,0.31,0.1162,0.4525,0.1188,0.4788,0.205,0.9338,0.5,1.339,0.1188,0.1675,0.235,0.2388,0.295,0.3838,0.205,0.4525,0.5875,0.8112,0.91,1.195,0.2062,0.215,0.3825,0.4062,0.5588,0.62,0.2062,0.215,0.5288,0.3825,0.735,0.5738,0.265,0.24,0.47,0.1912,0.7362,0.4538,0.2638,0.2638,0.675,0.3825,1.089,0.5012,0.3238,0.0963,0.56,0.1925,0.9425,0.265,0.3538,0.0738,0.6475,0.1488,0.9112,0.3462,0.0612,0.0225,0.2075-0.025,0.2662,0,0.3525,0.0475,0.765,0.0475,1.149,0.0712,1.06,0.0488,2.12,0.0488,3.091-0.1712,0.265-0.0725,0.3812-0.22,0.6488-0.2688,0.1762-0.05,0.3225-0.025,0.4988-0.0987,0.295-0.1188,0.4725-0.3575,0.795-0.4062,0.5012-0.1188,0.65-0.3812,1.089-0.4775,0.295-0.0462,0.5025-0.1912,0.7675-0.335,0.4125-0.2138,0.6762-0.405,0.9412-0.7162,0.1188-0.1425,0.2662-0.2388,0.4712-0.4062,0.6488-0.525,1.208-1.194,1.472-1.935,0.06-0.12,0.06-0.2162,0.1475-0.335,0.2062-0.2388,0.1762-0.5738,0.2062-0.8838,0.0575-0.3125,0.325-0.5988,0.235-0.9562zm-3.68,0.1438c-0.1775,0.5-0.0888,1.05-0.2662,1.552-0.1175,0.3588-0.145,0.7412-0.4112,1.051-0.1788,0.2162-0.1788,0.3112-0.385,0.5262-0.2625,0.3112-0.4388,0.5975-0.675,0.9088-0.1475,0.1912-0.3238,0.31-0.5012,0.4775-0.3825,0.4538-1.03,0.7162-1.649,0.9075-0.265,0.0963-0.56,0.1925-0.8525,0.215-0.1788,0.0238-0.355,0-0.5612,0.0238-0.47,0-0.9712,0.1688-1.382,0.025-0.3238-0.0713-0.5612-0.1425-0.8838-0.2638-0.2062-0.07-0.295-0.095-0.5012-0.1662-0.3825-0.1425-0.6762-0.4075-1-0.67-0.2375-0.19-0.4412-0.3575-0.6488-0.5488-0.2038-0.2388-0.3538-0.5262-0.5288-0.7888-0.15-0.2875-0.3262-0.5025-0.4425-0.7888-0.265-0.5038-0.53-1.028-0.5888-1.602-0.03-0.3588-0.03-0.7638-0.0588-1.122-0.0312-0.5012,0.1175-0.8588,0.0875-1.362,0-0.55,0.325-1.075,0.6188-1.552,0.1462-0.2388,0.295-0.4788,0.5012-0.7175,0.1162-0.1425,0.1762-0.3588,0.3525-0.4788,0.3538-0.2612,0.5012-0.6688,0.9138-0.8112,0.3238-0.0963,0.3238-0.4788,0.7362-0.4788,0.3525,0,0.6188-0.19,0.9988-0.2862,0.1788-0.0237,0.325-0.0487,0.5012-0.12,0.0912-0.0712,0.2062-0.0487,0.325-0.1188,0.4425-0.215,1-0.0725,1.501-0.0725l0.2362,0.0975c0.2062-0.0725,0.3525,0.2138,0.5288,0.2138,0.59-0.0237,0.8238,0.335,1.239,0.5488,0.44,0.2162,0.765,0.575,1.059,0.9325,0.2362,0.2875,0.4412,0.5025,0.7062,0.765,0.1488,0.1675,0.2075,0.3838,0.295,0.5975,0.0588,0.145,0.1188,0.2625,0.1475,0.43,0.0275,0.0962,0.0875,0.1425,0.1188,0.265,0.175,0.5712,0.47,1.121,0.4388,1.719,0,0.2388,0.0888,0.43,0,0.6212l0.0312,0.0725" fill-rule="nonzero" fill="#231f20"/>

   <path d="m745.3,600.4c-0.1675,0.155-0.2388,0.31-0.4038,0.4262-0.145,0.0962-0.1912,0.2512-0.3588,0.3475-0.1188,0.0788-0.2388,0.1162-0.4025,0.0788-0.215-0.06-0.24,0-0.4775-0.0987-0.165-0.0562-0.26,0.02-0.4275-0.0188-0.4488-0.0775-0.9025-0.1738-1.352-0.2325-0.7138-0.095-1.499-0.3475-2.141,0.02-0.355,0.1938-0.7362,0.1938-1.115,0.1938-0.12-0.0187-0.1688-0.135-0.1438-0.1738,0.1912-0.31,0.4275-0.6012,0.6662-0.8912,0.1188-0.1362,0.095-0.3112,0.2375-0.4088,0.1875-0.155,0.2362-0.2125,0.4038-0.3675,0.1662-0.1562,0.1425-0.3688,0.3088-0.5225,0.1188-0.0987,0.1675-0.195,0.2612-0.235,0.475-0.2512,1.14,0,1.664,0.1175,0.3088,0.0775,0.5475,0.0975,0.8075,0.135,0.2862,0.0575,0.595,0,0.8075,0.1362,0.1675,0.0775,0.1675,0,0.31,0.0775,0.12,0.0575,0.2612-0.02,0.4062,0.0388,0.2362,0.0775,0.45-0.02,0.7112-0.0588,0.285-0.0187,0.4762-0.1938,0.7138-0.3875,0.1412-0.135,0.405-0.175,0.6412-0.175,0.3338,0,0.3562,0.195,0.2838,0.3512-0.3562,0.6-0.9012,1.122-1.4,1.648" fill-rule="nonzero" fill="#231f20"/>

   <path d="m720.1,596.1c-0.3825-0.0713-0.9112,0.0712-1.324,0.0237-0.2662-0.0488-0.56,0.095-0.7938,0.0725-0.4412,0-0.855,0.0712-1.236-0.0962-0.2062-0.12-0.2925-0.335-0.3538-0.5262-0.0587-0.2875-0.2638-0.4312-0.3812-0.6938-0.1488-0.335-0.5012-0.5025-0.9425-0.6462-0.5-0.1925-0.8825-0.3838-1.412-0.3838-0.7362-0.0475-1.472-0.1425-2.179,0.0487-0.3248,0.095-0.5591,0.095-0.8839,0.2625-0.706,0.335-1.385,0.79-1.945,1.316-0.2051,0.1912-0.353,0.335-0.5005,0.5738-0.1768,0.265-0.2638,0.5512-0.3232,0.8625-0.0591,0.1675-0.1176,0.2862-0.148,0.4788-0.0864,0.3588-0.2636,0.7175-0.3809,1.076-0.1191,0.335,0.0875,0.5512-0.1191,0.8375-0.205,0.3112-0.1181,0.6938-0.0298,1.03,0.0591,0.3338-0.0287,0.645,0.1489,0.98,0.1451,0.2875,0.2632,0.5738,0.2945,0.885,0.0576,0.5262,0.3525,0.8388,0.5576,1.291,0.1186,0.265,0.3248,0.36,0.5312,0.6225,0.2349,0.2875,0.3814,0.4312,0.647,0.6225,0.2944,0.215,0.561,0.4312,0.9419,0.5275,0.1778,0.0475,0.2954,0.095,0.4711,0.1662,0.354,0.1438,0.7379,0.1675,1.119,0.265,0.4425,0.1188,0.8838,0.1412,1.382,0.1412,0.56,0,1.12-0.0937,1.65-0.19,0.265-0.0488,0.5012-0.1675,0.7362-0.2875,0.2662-0.1438,0.6188-0.2388,0.765-0.5025,0.1475-0.3112,0.0613-0.6462,0.0888-0.9812,0-0.1425-0.0888-0.2625-0.0275-0.4538,0.145-0.6238,0.0587-1.196,0.1762-1.844,0.0287-0.2138-0.06-0.43-0.1175-0.67-0.0587-0.335,0.1462-0.6925-0.09-0.98-0.2062-0.2638-0.735-0.0725-0.8825-0.3825h-0.03c0.0888-0.0963,0-0.265,0.1175-0.3125,0.3238-0.1662,0.7362-0.07,1.061-0.0462,0.205,0.0237,0.3225,0.0237,0.5288,0.0712,0.3812,0.0712,0.705-0.025,1.086,0,0.3838,0.0225,0.7962,0.0475,1.149,0,0.295-0.025,0.6475-0.095,0.8538,0.0475,0.205,0.1438,0.0588,0.4788,0.0287,0.6688,0,0.145,0.1475,0.2888,0.0875,0.4075-0.0875,0.1912,0,0.3825-0.0288,0.5988-0.0287,0.3838,0.0888,0.8138-0.0875,1.149-0.0588,0.12,0.0287,0.2875,0.0287,0.4075,0.03,0.2388-0.06,0.5025-0.0287,0.7175v1.172c0.0287,0.3825,0.235,0.98-0.2662,1.195-0.1462,0.0738-0.4112-0.0237-0.5875-0.0237-0.3238,0.0237-0.7038,0.0975-1.029,0.1912-0.3838,0.0738-0.6775,0.145-1.001,0.2875-0.295,0.1425-0.5875,0.19-0.9412,0.3338-0.4112,0.1675-0.8538,0.1425-1.238,0.2625-0.2625,0.0963-0.4988,0.12-0.7925,0.1912-0.5888,0.1425-1.238,0.31-1.886,0.2612-0.205-0.0213-0.2938-0.0213-0.5-0.07-0.5301-0.1438-1.12-0.0237-1.649-0.1912-0.3525-0.095-0.7055-0.1662-1.059-0.1912-0.2364-0.0475-0.3238-0.1425-0.501-0.19-0.2651-0.12-0.5884-0.1438-0.8248-0.3112-0.2348-0.1662-0.3822-0.2138-0.5892-0.3825-0.2349-0.215-0.5591-0.3825-0.8814-0.55-0.207-0.1188-0.2656-0.2388-0.4414-0.3338-0.5015-0.3362-0.7661-0.815-1.148-1.172-0.1489-0.1688-0.1772-0.2162-0.3248-0.4062-0.412-0.6712-0.6479-1.365-0.8549-2.13-0.0571-0.2638-0.087-0.48-0.146-0.7438-0.1168-0.3575-0.0889-0.7175-0.0591-1.1,0-0.2625,0-0.4788,0.148-0.6938,0.1474-0.215,0-0.4538,0.206-0.6938,0.2349-0.24,0.206-0.5738,0.294-0.885,0.0884-0.1912,0.1758-0.2625,0.1758-0.4788,0.0312-0.2638,0.4121-0.4538,0.5298-0.695,0.1186-0.2388,0.355-0.43,0.5909-0.5738,0.1166-0.0713,0.2344-0.1188,0.2939-0.1912,0.0571-0.0962,0.146-0.1188,0.2344-0.2388,0.3545-0.3825,0.8834-0.6462,1.356-0.9338,0.2349-0.1438,0.5581-0.24,0.8535-0.36,0.354-0.12,0.707-0.1675,1.03-0.3362,0.2066-0.1175,0.354-0.0213,0.4424-0.19l1-0.1188c0.2051-0.145,0.4131-0.0963,0.6485-0.0963,0.3834-0.0488,0.7359,0.0237,1.061-0.0488,0.3538-0.0712,0.7062-0.095,1.03-0.0712,0.235,0.025,0.5,0.025,0.7075,0.0712,0.6175,0.1675,1.381,0.0963,2,0.2412,0.2062,0.07,0.3262,0.1425,0.6188,0.1425,0.2938,0.025,0.4988,0.07,0.765,0.12,0.3525,0.0725,1.03-0.215,1.148,0.1438,0.0888,0.2625,0.265,0.3825,0.3512,0.6225,0.09,0.2625,0.2062,0.5262,0.3838,0.765,0.235,0.2875,0.3525,0.6225,0.8225,0.7662,0.1188,0.0237,0.2662,0,0.3525,0.0725,0.15,0.0937,0.2075,0.31,0.0312,0.3575-0.1475,0.0975-0.3525,0.0725-0.5588,0.0488" fill-rule="nonzero" fill="#231f20"/>

   <path d="m724.6,599.1c-0.4162-0.005-0.3338,0.01-0.7488,0-0.4188-0.0112-0.6662-0.0575-0.9462-0.055-0.2788,0.001-0.4725-0.006-0.665,0-0.1938,0.005-0.5288,0-0.5288,0l-0.1175-1.528c0-0.1688,0.03-0.3375,0-0.53-0.0288-0.0962,0.0562-0.1925,0.03-0.265-0.0588-0.1675,0-0.335-0.03-0.5288-0.0588-0.7925,0.0875-1.539-0.0288-2.332-0.0575-0.265-0.59-0.3375-0.59-0.6262,0-0.0963,0.1488-0.24,0.2362-0.24,0.1775-0.0238,0.3238-0.1188,0.47-0.1188s0.3238,0.07,0.47,0.0475c0.5288-0.0475,1.028-0.025,1.526-0.0962,0.2925-0.0488,0.5275,0.0487,0.7925,0.0237,0.2625-0.0487,0.41,0.025,0.6438-0.0237l0.2375,0.0237,0.1162-0.0487c0.885,0.1212,1.826-0.0475,2.65,0.0487,0.3838,0.025,0.7662-0.0237,1.178-0.0237,0.5012,0,1.001,0.0237,1.56,0,0.1175,0,0.3538-0.0488,0.53-0.0488,0.4138-0.0237,0.9138-0.0237,1.326-0.0475,0.2375-0.025,0.3238,0.1675,0.4125,0.3125,0.1175,0.2175-0.235,0.4562-0.0588,0.6488,0.205,0.2888-0.0888,0.4575,0,0.7212,0.1762,0.4325,0.1175,1.01-0.3238,1.251-0.4112,0.2162-0.8238-0.17-1.09-0.4325-0.235-0.1938-0.3838-0.2162-0.5288-0.4562-0.15-0.3375-0.6788-0.265-0.855-0.6738-0.0888-0.1925-0.2938-0.2412-0.5-0.3612-0.1775-0.1188-0.3838-0.1188-0.5888-0.17-0.295-0.0712-0.4712-0.0475-0.7662-0.0475-0.2062,0-0.4125,0.1212-0.6188,0.0725-0.265-0.0475-0.3525,0.0488-0.59,0-0.3212-0.0725-0.705-0.0725-1.029-0.0725-0.3825,0-0.8838-0.0237-1.031,0.3862l-0.06,0.215v1.612c0,0.625,0.3838,1.202,0.2375,1.756-0.0588,0.1675,0.1188,0.3362,0.295,0.4075,0.2638,0.1412,0.4988,0.165,0.795,0.1412,0.53-0.0475,0.9712,0.0238,1.47-0.0687,0.5912-0.12,1.268,0.115,1.709-0.2888,0.1175-0.0725,0.295-0.12,0.3538-0.2162,0.03-0.12,0.2062-0.12,0.295-0.1912l0.3538-0.29c0.235,0.025,0.44-0.0962,0.6462,0,0.1775,0.0712,0.2362,0.2175,0.2362,0.3612,0.0287,0.24-0.0288,0.4325-0.0288,0.6462,0,0.0712,0.0875,0.3738,0.1188,0.7925-0.18,0.4738-0.71,0.2788-1.269,0.2788-0.3525,0-0.765,0.0237-1.176,0.0237-1.12,0.025-2.12-0.0237-3.24,0.025,0,0-0.865-0.01-1.28-0.015zm-2.026,1.028c0.4412-0.0362,0.4488,0.135,1,0.1112,0.5488-0.0238,0.4-0.003,0.7488-0.0275,0.3488-0.025,0.97-0.0675,1.194,0,0.225,0.0675,0.9825-0.0412,0.9825-0.0412,0.47-0.025,1.061,0.0475,1.619,0.0237,0.4138,0,0.885-0.0487,1.326,0,0.1462,0,0.2362-0.0237,0.3525-0.0237,0.56,0.0475,1.119,0,1.65,0,0.1762-0.025-0.0875,0.7312,0.0875,0.7562,0.0312,0.425,0.0312,0.5212,0.0312,0.5938,0.0263,0.3325,0.1762,0.86-0.385,0.9075-0.3825,0.0237-0.7362-0.12-1.001-0.3588h-0.1175c-0.2938-0.2875-0.6775-0.5488-1.059-0.7175-0.15-0.0462-0.2662,0-0.4125,0.0238-0.265,0.0475-0.6488,0.0237-0.8838,0.0475-0.2362,0.0487-0.4438-0.0475-0.6775-0.0475-0.3238,0.0237-0.7062,0.0237-1.031,0.0475-0.295,0.025-0.6162,0.12-0.6762,0.3588-0.0888,0.3588-0.1775,0.7175-0.0888,1.052,0.0588,0.215,0,0.2862,0,0.4538,0.1188,0.9562,0.03,0.0475,0.03,1.004,0,0.2625,0.0288,0.3112,0.0888,0.6212,0.0888,0.3588,0.0888,0.6212,0,0.98-0.0888,0.215,0.2062,0.3838,0.4112,0.4775,0.2075,0.12,0.3838,0.0725,0.6488,0.0725,0.6762,0.0225,1.354-0.1438,2.03-0.12,0.2362,0.0237,0.3838,0,0.6188,0.0237,0.265,0.0488,0.56,0,0.825-0.07,0.4712-0.1925,0.7662-0.5975,1.208-0.8138,0.3238-0.1675,0.3538-0.4312,0.6762-0.6212,0.1488-0.095,0.1775-0.2388,0.325-0.3838,0.2938-0.3338,0.735-0.6438,1.294-0.4288,0.09,0.0238,0.1188,0.0712,0.1488,0.1188,0.2362,0.3588-0.235,0.7888-0.0588,1.124,0.2075,0.3338,0.0288,0.5012,0.1475,0.8612,0.0888,0.31,0.0888,0.795-0.4138,0.8938-0.5888,0.1462-1.208,0.05-1.795,0.0725-0.2075,0-0.5012-0.0725-0.765-0.0725-0.56,0-1.12,0.0975-1.708,0.0975-0.1775,0-0.2075,0-0.3538-0.025-0.6488-0.0725-1.149,0-1.766,0-0.2662,0-0.5312,0.025-0.7662,0.025-0.1775-0.025-0.3238,0.0237-0.4712,0.0237-0.295-0.0237-0.56-0.0962-0.8538-0.0962-0.1162,0-0.145-0.05-0.2338,0-0.2638,0.145-0.4688-0.075-0.7338,0.0725-0.1775,0.0975-0.3812,0.0975-0.6162,0.0237-0.2362-0.0487-0.2925-0.0712-0.4688-0.0712-0.3225,0.0225-0.44,0.0225-0.7325,0.0475-0.3538,0.0237-0.9725,0.0975-1.029-0.27-0.0312-0.1712,0.145-0.3638,0.3212-0.3888,0.2062-0.0462,0.4712-0.0462,0.56-0.1888,0.205-0.3588-0.0587-0.8138,0-1.196,0.0275-0.2875,0.0275-0.5488,0-0.8362,0-0.2625-0.0888-0.4788-0.0587-0.765,0-0.5738-0.03-1.076,0.0587-1.65,0.0275-0.1662-0.0337-1.506-0.06-1.672,0,0,0.3912,0.009,0.8338-0.0288" fill-rule="nonzero" fill="#231f20"/>

   <path d="m680.3,609.3,1.841,5.648-2.984,3.808-17.92,0.7861-0.4375-2.757,3.033-3.033,1.175-3.563,1.46-3.109,13.77,0.1275,0.063,2.092" fill-rule="nonzero" fill="#FFF"/>

   <path d="m685.8,606.8c-0.1381-0.1525-0.1255-0.3325-0.25-0.47,0.043-0.25-0.2764-0.25-0.2616-0.47-0.0416-0.0825-0.1812-0.0975-0.2076-0.015,0.0264,0.5125-0.2631,0.9412-0.5815,1.288-0.5405,0.65-1.453,0.83-2.24,0.9812-0.0845,0.0563-0.1948-0.0137-0.251,0.07-0.3451,0.0688-0.704,0.0688-1.05,0.0975-0.2221,0.0412-0.5548,0.0412-0.7764,0.0138-0.1655,0.055-0.3032,0-0.4688,0-0.1537,0.055-0.292-0.0563-0.4296,0.0275-0.5391-0.0838-1.12,0.0275-1.688-0.0275-0.0679-0.0288-0.1099,0.0687-0.1514,0.0137l-0.8438,0.0688c-0.1534,0.0137-0.2901-0.0138-0.4566,0.0275-0.7065-0.0275-1.467,0.1388-2.076,0.4575-0.6641,0.2488-1.218,0.8988-1.439,1.578,0.0415,0.1099-0.083,0.2061-0.0679,0.3174-0.1522,0.3462-0.0702,0.7749,0.0963,1.107,0.042,0.1514,0.0981,0.3174,0.1381,0.4834-0.2216-0.0694-0.456-0.207-0.5395-0.4298-0.0415-0.0264-0.1099-0.0536-0.1524,0-0.0136,0.1114,0,0.2369,0.0557,0.3199,0.1801,0.6919,0.5111,1.273,1.092,1.715h0.042c0.2226,0.2211,0.5669,0.29,0.8169,0.4852,0.0415,0.0138,0.0684-0.0151,0.1099,0.0274,0.1944,0.0141,0.3461,0.1099,0.499,0.1514l0.0551-0.0141c0.1529,0.0976,0.4146,0.0288,0.5811,0.0566,0.0684,0.0694,0.1529-0.0279,0.2349-0.0425,0.1934,0,0.3871-0.0546,0.5956-0.0689,0.0684-0.0272,0.1505-0.0961,0.1245-0.1786-0.4575-0.2228-0.7201-0.6924-0.8866-1.15-0.166-0.3725-0.0684-0.83-0.1236-1.246-0.0282-0.0411-0.0981-0.0274-0.125,0.0141-0.1245,0.2211-0.3876,0.3461-0.6356,0.3189-0.0148-0.1388-0.0148-0.3463,0.1098-0.4429,0.1382-0.2911,0.3868-0.4986,0.6085-0.6782,0.5259-0.2915,1.148-0.4976,1.771-0.4702,0.5951-0.0825,1.218,0.0968,1.716,0.2779,0.332,0.2485,0.6768,0.4135,1.024,0.6343,0.333,0.333,0.5259,0.7749,0.6924,1.204,0.1099,0.1806,0.0679,0.4702,0.1791,0.665,0.124,0.3311,0.0284,0.5542,0.0141,0.8848,0.0562,0.1114-0.0834,0.208-0.0272,0.3189-0.0425,0.208-0.125,0.4292-0.1808,0.6368-0.0971,0.1655-0.1655,0.3448-0.2764,0.4834-0.0419,0.1382-0.1665,0.2636-0.2216,0.4024-0.2344,0.29-0.415,0.6914-0.789,0.8984l-0.2066,0.8862c-0.3599,1.024-1.065,1.978-1.924,2.711,0.955,0,1.604-0.6226,2.421-1.038l0.0272,0.0415c0.5684,0.2636,1.205,0.5126,1.786,0.1665,0.3315-0.0825,0.5674-0.3189,0.7188-0.6094,0.0835-0.0548,0.1254-0.1368,0.1254-0.248-0.0825-0.084-0.208,0-0.2768,0.0551-0.3599,0.0561-0.7476-0.0551-0.9971-0.3194,0.3179-0.331,0.5962-0.6225,0.8994-0.9682,0.1393-0.1235,0.2076-0.3174,0.3609-0.3999,0.0264-0.1114,0.0684-0.1806,0.1368-0.2636,0.0151-0.1104,0.1112-0.1665,0.1112-0.2764,0.0689-0.1665,0.1802-0.2901,0.2212-0.4713,0.1934-0.2354,0.2779-0.5107,0.3462-0.8027,0.2778,0,0.5126-0.166,0.7344-0.332,0.3164-0.3174,0.496-0.8012,0.496-1.257,0-0.0561-0.082-0.0981-0.0264-0.1542-0.082-0.1094,0.0684-0.2075-0.0136-0.3174-0.0966-0.0556-0.1396,0.0694-0.2075,0.0981-0.167,0.2485-0.4844,0.3735-0.7749,0.3858,0-0.041,0-0.0551,0.0136-0.0961,0-0.1388,0-0.2638-0.0284-0.3878,0.0553-0.1934-0.0961-0.3462-0.0551-0.5532-0.0141-0.1235-0.0141-0.1939-0.041-0.3032-0.0699-0.1113-0.083-0.2216-0.1099-0.3471h-0.0284c-0.1381-0.207-0.207-0.3872-0.3183-0.5952-0.2759-0.4009-0.5952-0.7744-0.9688-1.037,0.333,0.0274,0.5946,0.0689,0.8853-0.0151,0.3612,0.0294,0.6225-0.0546,0.9678-0.0966,0.3461,0.0277,0.6655-0.1114,0.9834-0.1524,0.208-0.082,0.4434-0.082,0.623-0.2058,0.2075-0.0562,0.4146-0.25,0.4561-0.4712,0.3189-0.3738,0.332-0.9,0.4844-1.342,0.0561-0.5812-0.0972-1.094-0.1798-1.605" fill-rule="nonzero" fill="#231f20"/>

   <g transform="matrix(0.12499987,0,0,-0.125,586.69707,735.27619)">

    <path stroke-linejoin="miter" d="m792.7,1028c-1.106,1.22-1.004,2.66-2,3.76,0.344,2-2.211,2-2.094,3.76-0.332,0.66-1.449,0.78-1.66,0.12,0.211-4.11-2.106-7.54-4.652-10.3-4.325-5.2-11.62-6.64-17.92-7.85-0.676-0.45-1.559,0.11-2.008-0.56-2.762-0.55-5.633-0.55-8.402-0.78-1.778-0.33-4.438-0.33-6.211-0.12-1.325-0.43-2.426,0-3.75,0-1.231-0.43-2.336,0.46-3.438-0.21-4.312,0.67-8.961-0.22-13.51,0.21-0.543,0.23-0.879-0.54-1.211-0.1l-6.75-0.56c-1.226-0.1-2.32,0.12-3.652-0.21-5.652,0.21-11.74-1.11-16.6-3.66-5.313-1.99-9.747-7.19-11.52-12.62,0.332-0.879-0.664-1.648-0.543-2.539-1.219-2.769-0.563-6.199,0.769-8.855,0.336-1.211,0.786-2.539,1.106-3.868-1.774,0.555-3.649,1.657-4.317,3.438-0.332,0.211-0.878,0.43-1.218,0-0.11-0.891,0-1.895,0.445-2.559,1.441-5.535,4.09-10.18,8.738-13.72h0.336c1.782-1.77,4.535-2.321,6.535-3.883,0.332-0.11,0.547,0.121,0.879-0.219,1.555-0.113,2.77-0.879,3.993-1.211l0.441,0.113c1.223-0.781,3.316-0.23,4.648-0.453,0.547-0.554,1.223,0.223,1.879,0.34,1.547,0,3.098,0.438,4.766,0.551,0.547,0.219,1.203,0.769,0.996,1.43-3.66,1.781-5.762,5.539-7.094,9.195-1.328,2.98-0.547,6.641-0.988,9.965-0.227,0.328-0.785,0.219-1-0.114-0.996-1.769-3.102-2.769-5.086-2.55-0.117,1.109-0.117,2.769,0.879,3.543,1.105,2.328,3.094,3.988,4.867,5.425,4.207,2.332,9.188,3.981,14.17,3.762,4.762,0.66,9.742-0.773,13.73-2.222,2.656-1.989,5.414-3.309,8.187-5.075,2.664-2.664,4.207-6.199,5.539-9.629,0.879-1.445,0.543-3.761,1.434-5.32,0.992-2.648,0.226-4.434,0.113-7.078,0.449-0.891-0.668-1.664-0.219-2.551-0.34-1.664-1-3.433-1.445-5.094-0.777-1.324-1.324-2.757-2.211-3.867-0.336-1.105-1.332-2.109-1.773-3.218-1.875-2.321-3.321-5.532-6.313-7.188l-1.652-7.09c-2.879-8.191-8.52-15.83-15.39-21.69,7.641,0,12.84,4.98,19.37,8.3l0.219-0.332c4.547-2.109,9.641-4.101,14.28-1.332,2.652,0.661,4.539,2.551,5.75,4.875,0.668,0.438,1.004,1.094,1.004,1.985-0.66,0.672-1.664,0-2.215-0.442-2.879-0.449-5.98,0.442-7.976,2.555,2.543,2.648,4.769,4.981,7.195,7.746,1.113,0.988,1.66,2.539,2.887,3.199,0.211,0.891,0.547,1.446,1.093,2.11,0.122,0.883,0.891,1.332,0.891,2.211,0.551,1.332,1.441,2.32,1.77,3.769,1.546,1.883,2.222,4.086,2.769,6.422,2.223,0,4.102,1.328,5.875,2.656,2.531,2.539,3.969,6.41,3.969,10.06,0,0.449-0.656,0.785-0.211,1.234-0.656,0.875,0.547,1.66-0.109,2.539-0.774,0.446-1.118-0.554-1.661-0.785-1.336-1.988-3.875-2.988-6.199-3.086,0,0.328,0,0.442,0.11,0.77,0,1.109,0,2.109-0.227,3.101,0.441,1.547-0.77,2.77-0.441,4.426-0.114,0.988-0.114,1.551-0.329,2.426-0.558,0.891-0.664,1.773-0.878,2.777h-0.227c-1.105,1.656-1.656,3.098-2.547,4.762-2.207,3.207-4.762,6.195-7.75,8.293,2.664-0.219,4.758-0.551,7.082,0.121,2.891-0.234,4.981,0.438,7.742,0.773,2.77-0.222,5.325,0.891,7.868,1.219,1.664,0.656,3.546,0.656,4.984,1.647,1.66,0.45,3.316,2,3.648,3.77,2.551,2.99,2.657,7.2,3.875,10.74,0.45,4.65-0.777,8.75-1.437,12.84z" stroke="#FFF" stroke-linecap="butt" stroke-miterlimit="2.61310005" stroke-dasharray="none" stroke-width="3.77406001" fill="none"/>

   </g>

   <path d="m669.6,605.9c0.1099,0.0688,0.3048,0.0688,0.4292,0.14,0.0687-0.0425,0.0551,0.0675,0.1381,0.0675,0.1388-0.0275,0.2632,0.0138,0.3599,0.0688-0.3179,0.085-0.664,0.1662-1.01,0.2088-0.2354-0.1662-0.3882-0.4412-0.6645-0.5962,0.2626,0,0.4844,0.1388,0.747,0.1112zm5.756,16.94c-0.1114-0.0983-0.2364-0.1665-0.3594-0.2491-0.043-0.0971-0.167-0.1112-0.1949-0.2357,0-0.2218-0.1112-0.3468-0.0684-0.5816,0.0279-0.125,0.1661-0.1514,0.208-0.2626,0.0953-0.0553,0.1782-0.1798,0.3032-0.1798,0.166-0.1391,0.4141-0.2075,0.5806-0.333,1.22-0.539,2.159-1.812,2.672-2.986,0.0679-0.3048,0.1368-0.6099,0.2216-0.9l0.3726-0.1543c0.0966-0.0957,0.1396-0.2192,0.165-0.3584-0.0254-0.207-0.1788-0.3878-0.3169-0.4976,0.0556-0.1811,0.207-0.4301,0.1381-0.5966,0.042-0.1929-0.0556-0.3868-0.1112-0.5796-0.1529-0.4283-0.5938-0.7475-1.037-0.8442-0.0694-0.0141-0.1524,0.042-0.1382,0.1245,0.1651,0.1524,0.291,0.333,0.3736,0.5537,0.0546,0.124,0.041,0.3052,0.1099,0.415-0.0274,0.2349-0.0689,0.4561-0.1925,0.65-0.166-0.0415-0.3886,0-0.5536,0.0961-0.1382,0.1811-0.1665,0.4718-0.042,0.6788,0.042,0.084,0.124,0.0976,0.1801,0.1524-0.0146,0.1391-0.1112,0.2349-0.1801,0.3461-0.3325,0.4014-0.5942,0.9141-1.08,1.232-0.125,0.1371-0.3315,0.207-0.4834,0.3169-0.4854,0.1953-0.9698,0.4029-1.453,0.4995-0.2364,0.0815-0.5259,0-0.7192,0.1099-0.1944-0.0141-0.3878-0.0141-0.5806,0.0282-0.6089-0.082-1.288,0.0143-1.911-0.1522-0.1929-0.0279-0.373-0.125-0.581-0.0684l-0.0264-0.042c-0.623-0.0699-1.149-0.3462-1.73-0.5132-0.5679-0.2065-1.079-0.5111-1.55-0.8838-0.3316-0.3046-0.5962-0.5669-0.8575-0.8999-0.1391-0.0825-0.2216-0.2638-0.2764-0.4302-0.1391-0.1786-0.208-0.4145-0.3061-0.5946-0.1099-0.3741-0.1665-0.8438-0.1514-1.188,0.0699-0.0289,0-0.0704,0-0.1529,0.083-0.1665,0.0133-0.3189,0.1114-0.4829,0.248-0.1114,0.3862-0.4155,0.6778-0.4718,0.539-0.291,1.162-0.1665,1.784-0.1796,0.4565,0,0.8706,0.1372,1.274,0.291,0.1934,0.1099,0.4429,0.1924,0.5942,0.3448,0.29,0.1665,0.5249,0.4849,0.7075,0.7475,0.0546,0.0415-0.0166,0.1665,0.0947,0.1388,0.2762-0.4439,0.1816-1.039,0.125-1.536-0.0137-0.1651-0.0831-0.2774-0.1949-0.3736-0.1914-0.29-0.3862-0.5536-0.6626-0.7475-0.4014-0.2349-0.872-0.3306-1.343-0.4288-0.3315-0.0825-0.773-0.0274-1.038-0.3032-0.2764-0.0976-0.5244-0.2368-0.6772-0.499-0.0697-0.0825-0.1528-0.1376-0.1376-0.2349-0.1255-0.084-0.085-0.2349-0.167-0.3174-0.1534-0.54-0.0415-1.176,0.2778-1.634,0.1651-0.1662,0.2896-0.3738,0.5391-0.4425,0.1788,0.2075,0.3589,0.4288,0.6079,0.5538,0.1519,0.0275,0.3184,0.3038,0.4429,0.1238-0.1514-0.2625-0.1934-0.5112-0.2364-0.815,0.085-0.07,0.1798-0.0825,0.2648-0.0975,0.3315,0.015,0.7188,0.0688,1.05,0.1788,0.1396,0.125,0.3881,0.0838,0.4859,0.2775,0.1919,0.0688,0.4145,0.1662,0.581,0.305-0.043,0.3862-0.291,0.705-0.4854,1.038,0.0284,0.0412,0.0694,0.0412,0.1109,0.0412,0.125-0.0687,0.2339-0.1525,0.3745-0.2075,0.5244-0.2075,1.01-0.5538,1.397-0.9412,0.0279-0.11-0.1119-0.11-0.1529-0.1662-0.6781-0.165-1.176-0.6775-1.784-1.01,0.1504-0.055,0.373,0.0275,0.5098,0,1.148,0.1525,2.299,0.36,3.266,0.9275,0.083,0,0.1665,0,0.208-0.0412-0.1802-0.415-0.5396-0.775-0.8442-1.08-0.083-0.0688-0.166-0.1112-0.2221-0.2075-0.2071-0.1112-0.2906-0.2625-0.4971-0.3875-0.1529-0.125-0.3594-0.18-0.4692-0.3312-0.1265-0.015-0.2372-0.0975-0.3461-0.1512-0.1949-0.14-0.4292-0.1812-0.6372-0.2775,0.0551-0.0838,0.1245-0.18,0.1796-0.235,0.0284-0.0825,0.1802-0.125,0.0963-0.235-0.3042-0.1675-0.6626-0.1938-0.9819-0.2625l-0.0684-0.0562c-0.4439-0.0688-0.7891-0.1512-1.217-0.2362-0.0561,0.0275-0.0976,0.0275-0.1391,0-0.6792-0.1362-1.273-0.1938-1.964-0.1788l-0.4145-0.1788c-0.3061-0.0563-0.6094-0.155-0.9419-0.1662l-0.0553-0.0413c-0.4698-0.1112-0.9404-0.195-1.466-0.1538-0.6509-0.0412-1.274,0.015-1.923,0.0688l-0.457,0.0287c-0.25,0.0488-0.5816,0.04-0.6782,0.3312,0.0835,0.1938,0.208,0,0.3179,0.0287,0.5825,0.0263,1.219,0.04,1.786,0.0263,0,0,1.092,0.1525,1.618,0.2912,0.2212,0.0288,0.4298,0.125,0.6226,0.2362,0.3032,0.0688,0.5244,0.2475,0.8022,0.3588,0.2485,0.2062,0.5249,0.3325,0.7206,0.5938l-0.1259,0.0425c-0.3316,0.055-0.6631,0.2088-0.982,0.3175-0.3461,0.0975-0.7051,0.2488-1.024,0.4288-0.3594-0.2062-0.8852-0.0963-1.244-0.0113-0.4722,0.1088-0.7476,0.5238-0.9288,0.9388,0.042,0.0975-0.083,0.0975-0.0679,0.195-0.042,0.095,0.083,0.1238,0.1376,0.11,0.1665-0.18,0.4566-0.1525,0.6778-0.2075,0.1382,0.015,0.291-0.0412,0.3878,0.0412-0.291,0.3738-0.416,0.83-0.5942,1.259,0.0269,0.07,0.0131,0.2212-0.0566,0.305-0.0962,0.485,0.125,0.9396,0.373,1.3,0.1104,0.2481,0.3048,0.4024,0.4726,0.6495-0.3622,0.2226-0.8315,0.249-1.149,0.5541-0.3194,0.1382-0.5274,0.4575-0.8438,0.5811-0.1529,0.1522-0.3594,0.3051-0.499,0.4706-0.1114,0.0825-0.1114,0.2213-0.2495,0.2764-0.3184,0.4698-0.6094,0.8711-0.8145,1.398,0.0132,0.1939-0.1811,0.3461-0.1811,0.5679-0.1934,0.414-0.1934,0.872-0.2212,1.328,0.0279,0.124,0.0147,0.3448,0.0147,0.4839-0.0299,0.3051,0.0815,0.499,0.0966,0.7886,0.123,0.3188,0.1798,0.706,0.3462,0.9955-0.0284,0.0709,0.0267,0.1114,0.0531,0.1534,0.0284,0.0694,0.1119,0.0561,0.0967,0.1381,0.1112,0.1255,0.1962,0.3038,0.3461,0.3179,0.0699-0.0825,0-0.2349-0.04-0.3315-0.0151-0.3735,0.04-0.8038,0.2349-1.135,0.1381-0.3032,0.4975-0.4575,0.8438-0.4844,0.8574,0.1386,1.218,0.9956,1.522,1.702,0.1112,0.2212,0.1665,0.5259,0.333,0.732l-0.0137,0.0429h0.0269c0.2212,0.2911,0.3048,0.6792,0.5396,0.9546,0.0966,0.3604,0.4009,0.582,0.6089,0.8575,0.2764,0.2075,0.498,0.5126,0.8164,0.7065,0.0694,0.1099,0.249,0.1376,0.3458,0.2211,0.5664,0.1798,1.148,0.5112,1.799,0.4986,0.0415-0.0289,0.1099-0.0289,0.1099-0.0835,0-0.0415,0-0.0963-0.041-0.0963-0.375-0.168-0.6782-0.54-0.8164-0.914-0.083-0.0835-0.0543-0.2071-0.1392-0.3037,0.0294-0.291,0.085-0.6099,0.3462-0.8159,0.2764-0.0978,0.6358-0.0289,0.8999-0.0576,0.5942,0,1.19,0.3061,1.633,0.6924,0.2749,0.1939,0.5528,0.3755,0.829,0.581,0.1929,0.0274,0.3462,0.1939,0.4981,0.291,0.249,0.1245,0.497,0.292,0.79,0.3589,0.5244,0.2364,1.064,0.3872,1.645,0.4302,0.166,0.0551,0.4009,0.0131,0.5406,0.0825,0.0682-0.0694,0.2211-0.0274,0.3178-0.041,0.4429-0.0689,0.9405-0.0561,1.314-0.2354,0.0557-0.041,0.0284-0.1386,0-0.1939-0.2612-0.0971-0.5805-0.0684-0.8154-0.2206" fill-rule="nonzero" fill="#231f20"/>

   <g transform="matrix(0.12499987,0,0,-0.125,586.69707,735.27619)">

    <path stroke-linejoin="miter" d="m663,1035c0.878-0.55,2.437-0.55,3.433-1.12,0.551,0.34,0.442-0.54,1.106-0.54,1.109,0.22,2.105-0.11,2.879-0.55-2.543-0.68-5.313-1.33-8.079-1.67-1.882,1.33-3.105,3.53-5.316,4.77,2.102,0,3.875-1.11,5.977-0.89zm46.05-135.5c-0.89,0.785-1.89,1.332-2.875,1.992-0.343,0.777-1.336,0.891-1.558,1.887,0,1.773-0.891,2.773-0.547,4.652,0.223,1,1.328,1.211,1.664,2.102,0.762,0.441,1.426,1.437,2.426,1.437,1.328,1.113,3.312,1.66,4.644,2.664,9.762,4.313,17.27,14.5,21.38,23.89,0.543,2.437,1.094,4.879,1.774,7.199l2.98,1.234c0.774,0.766,1.117,1.754,1.321,2.867-0.204,1.657-1.43,3.102-2.536,3.981,0.446,1.449,1.657,3.441,1.106,4.773,0.336,1.543-0.445,3.094-0.891,4.637-1.222,3.426-4.75,5.981-8.297,6.754-0.554,0.113-1.218-0.336-1.105-0.996,1.32-1.219,2.328-2.664,2.988-4.43,0.438-0.992,0.328-2.441,0.879-3.32-0.219-1.879-0.551-3.649-1.539-5.199-1.328,0.332-3.109,0-4.43-0.77-1.105-1.449-1.332-3.773-0.336-5.43,0.336-0.671,0.993-0.781,1.442-1.218-0.117-1.114-0.891-1.879-1.442-2.77-2.66-3.211-4.754-7.312-8.636-9.851-1-1.098-2.653-1.657-3.868-2.536-3.882-1.562-7.757-3.222-11.62-3.996-1.89-0.652-4.207,0-5.753-0.879-1.555,0.114-3.102,0.114-4.645-0.226-4.871,0.656-10.31-0.113-15.29,1.219-1.543,0.222-2.984,1-4.649,0.547l-0.21,0.335c-4.985,0.559-9.192,2.77-13.84,4.106-4.543,1.652-8.633,4.09-12.4,7.07-2.652,2.438-4.769,4.535-6.859,7.199-1.114,0.661-1.774,2.11-2.211,3.442-1.113,1.43-1.664,3.316-2.449,4.758-0.879,2.992-1.332,6.75-1.211,9.507,0.558,0.231,0,0.563,0,1.223,0.664,1.332,0.105,2.551,0.89,3.863,1.985,0.891,3.09,3.325,5.422,3.774,4.313,2.328,9.293,1.332,14.27,1.437,3.652,0,6.964-1.097,10.19-2.328,1.547-0.879,3.543-1.539,4.754-2.758,2.32-1.332,4.199-3.879,5.66-5.98,0.438-0.332-0.133-1.332,0.758-1.109,2.211,3.55,1.453,8.308,1,12.29-0.109,1.32-0.664,2.218-1.559,2.988-1.531,2.32-3.089,4.43-5.3,5.98-3.211,1.879-6.977,2.645-10.74,3.43-2.652,0.66-6.183,0.219-8.3,2.426-2.211,0.781-4.196,1.894-5.418,3.992-0.559,0.66-1.223,1.102-1.102,1.879-1.004,0.672-0.68,1.879-1.336,2.54-1.226,4.32-0.332,9.41,2.223,13.07,1.32,1.33,2.316,2.99,4.312,3.54,1.43-1.67,2.871-3.43,4.864-4.44,1.214-0.21,2.547-2.42,3.543-0.98-1.211,2.1-1.547,4.09-1.891,6.52,0.68,0.56,1.437,0.66,2.117,0.78,2.653-0.12,5.75-0.55,8.403-1.43,1.117-1,3.105-0.67,3.886-2.22,1.535-0.55,3.317-1.33,4.649-2.44-0.344-3.09-2.328-5.64-3.883-8.3,0.226-0.33,0.555-0.33,0.887-0.33,1,0.55,1.871,1.22,2.996,1.66,4.195,1.66,8.082,4.43,11.18,7.53,0.223,0.88-0.894,0.88-1.222,1.33-5.426,1.31-9.406,5.42-14.27,8.08,1.203,0.44,2.985-0.22,4.078,0,9.188-1.22,18.39-2.88,26.13-7.43,0.664,0,1.332,0,1.664,0.34-1.441,3.32-4.316,6.2-6.754,8.64-0.664,0.55-1.328,0.89-1.777,1.66-1.656,0.89-2.324,2.09-3.976,3.09-1.223,1.01-2.875,1.45-3.754,2.66-1.012,0.11-1.899,0.77-2.77,1.21-1.558,1.12-3.433,1.45-5.098,2.22,0.442,0.66,0.997,1.43,1.438,1.88,0.227,0.66,1.441,1,0.769,1.88-2.433,1.33-5.3,1.55-7.855,2.1l-0.547,0.45c-3.551,0.55-6.312,1.21-9.738,1.89-0.449-0.22-0.781-0.22-1.113,0-5.434,1.09-10.18,1.55-15.72,1.43l-3.317,1.43c-2.449,0.45-4.875,1.24-7.535,1.33l-0.441,0.33c-3.758,0.89-7.524,1.56-11.73,1.23-5.207,0.33-10.19-0.12-15.38-0.55l-3.656-0.23c-2-0.39-4.652-0.32-5.426-2.65,0.668-1.55,1.664,0,2.543-0.23,4.661-0.22,9.75-0.32,14.29-0.22,0,0,8.739-1.21,12.95-2.32,1.769-0.23,3.437-1,4.98-1.89,2.426-0.55,4.196-1.98,6.418-2.87,1.988-1.65,4.199-2.66,5.766-4.75l-1.008-0.34c-2.652-0.44-5.305-1.67-7.855-2.54-2.77-0.79-5.641-1.99-8.196-3.43-2.875,1.64-7.082,0.77-9.949,0.09-3.777-0.87-5.98-4.19-7.43-7.51,0.336-0.78-0.664-0.78-0.543-1.56-0.336-0.76,0.664-0.99,1.102-0.88,1.332,1.44,3.652,1.22,5.422,1.66,1.105-0.12,2.328,0.33,3.101-0.33-2.328-2.99-3.328-6.64-4.754-10.08,0.215-0.55,0.106-1.76-0.453-2.43-0.769-3.88,1-7.518,2.985-10.4,0.883-1.984,2.437-3.219,3.781-5.195-2.898-1.782-6.652-1.993-9.191-4.434-2.555-1.105-4.219-3.66-6.75-4.648-1.223-1.219-2.875-2.442-3.993-3.766-0.89-0.66-0.89-1.77-1.996-2.211-2.547-3.758-4.875-6.969-6.515-11.18,0.105-1.55-1.45-2.769-1.45-4.543-1.546-3.312-1.546-6.976-1.769-10.62,0.223-0.992,0.117-2.757,0.117-3.871-0.238-2.441,0.652-3.992,0.773-6.308,0.985-2.551,1.438-5.649,2.77-7.965-0.227-0.566,0.215-0.891,0.426-1.227,0.226-0.554,0.894-0.449,0.773-1.105,0.891-1.004,1.571-2.43,2.77-2.543,0.558,0.66,0,1.879-0.321,2.652-0.121,2.989,0.321,6.43,1.879,9.082,1.106,2.426,3.981,3.66,6.75,3.875,6.86-1.109,9.746-7.965,12.17-13.62,0.891-1.769,1.332-4.207,2.664-5.855l-0.109-0.344h0.215c1.769-2.328,2.437-5.434,4.316-7.637,0.774-2.883,3.207-4.656,4.871-6.859,2.211-1.66,3.985-4.102,6.532-5.653,0.554-0.878,1.992-1.101,2.765-1.769,4.531-1.438,9.188-4.09,14.4-3.988,0.332,0.23,0.879,0.23,0.879,0.668,0,0.332,0,0.769-0.328,0.769-3,1.344-5.426,4.32-6.532,7.313-0.664,0.668-0.433,1.656-1.113,2.429,0.234,2.328,0.68,4.879,2.77,6.528,2.21,0.781,5.085,0.23,7.199,0.461,4.754,0,9.523-2.45,13.07-5.539,2.199-1.551,4.422-3.004,6.633-4.649,1.543-0.219,2.769-1.551,3.984-2.328,1.993-0.996,3.977-2.336,6.321-2.871,4.195-1.891,8.511-3.098,13.16-3.441,1.328-0.442,3.207-0.106,4.324-0.661,0.547,0.555,1.77,0.219,2.543,0.328,3.543,0.551,7.523,0.45,10.51,1.883,0.445,0.328,0.226,1.11,0,1.551-2.09,0.777-4.645,0.547-6.524,1.766z" stroke="#FFF" stroke-linecap="butt" stroke-miterlimit="2.61310005" stroke-dasharray="none" stroke-width="3.77406001" fill="none"/>

   </g>

   <path d="m685.8,606.8c-0.1381-0.1525-0.1255-0.3325-0.25-0.47,0.043-0.25-0.2764-0.25-0.2616-0.47-0.0416-0.0825-0.1812-0.0975-0.2076-0.015,0.0264,0.5125-0.2631,0.9412-0.5815,1.288-0.5405,0.65-1.453,0.83-2.24,0.9812-0.0845,0.0563-0.1948-0.0137-0.251,0.07-0.3451,0.0688-0.704,0.0688-1.05,0.0975-0.2221,0.0412-0.5548,0.0412-0.7764,0.0138-0.1655,0.055-0.3032,0-0.4688,0-0.1537,0.055-0.292-0.0563-0.4296,0.0275-0.5391-0.0838-1.12,0.0275-1.688-0.0275-0.0679-0.0288-0.1099,0.0687-0.1514,0.0137l-0.8438,0.0688c-0.1534,0.0137-0.2901-0.0138-0.4566,0.0275-0.7065-0.0275-1.467,0.1388-2.076,0.4575-0.6641,0.2488-1.218,0.8988-1.439,1.578,0.0415,0.1099-0.083,0.2061-0.0679,0.3174-0.1522,0.3462-0.0702,0.7749,0.0963,1.107,0.042,0.1514,0.0981,0.3174,0.1381,0.4834-0.2216-0.0694-0.456-0.207-0.5395-0.4298-0.0415-0.0264-0.1099-0.0536-0.1524,0-0.0136,0.1114,0,0.2369,0.0557,0.3199,0.1801,0.6919,0.5111,1.273,1.092,1.715h0.042c0.2226,0.2211,0.5669,0.29,0.8169,0.4852,0.0415,0.0138,0.0684-0.0151,0.1099,0.0274,0.1944,0.0141,0.3461,0.1099,0.499,0.1514l0.0551-0.0141c0.1529,0.0976,0.4146,0.0288,0.5811,0.0566,0.0684,0.0694,0.1529-0.0279,0.2349-0.0425,0.1934,0,0.3871-0.0546,0.5956-0.0689,0.0684-0.0272,0.1505-0.0961,0.1245-0.1786-0.4575-0.2228-0.7201-0.6924-0.8866-1.15-0.166-0.3725-0.0684-0.83-0.1236-1.246-0.0282-0.0411-0.0981-0.0274-0.125,0.0141-0.1245,0.2211-0.3876,0.3461-0.6356,0.3189-0.0148-0.1388-0.0148-0.3463,0.1098-0.4429,0.1382-0.2911,0.3868-0.4986,0.6085-0.6782,0.5259-0.2915,1.148-0.4976,1.771-0.4702,0.5951-0.0825,1.218,0.0968,1.716,0.2779,0.332,0.2485,0.6768,0.4135,1.024,0.6343,0.333,0.333,0.5259,0.7749,0.6924,1.204,0.1099,0.1806,0.0679,0.4702,0.1791,0.665,0.124,0.3311,0.0284,0.5542,0.0141,0.8848,0.0562,0.1114-0.0834,0.208-0.0272,0.3189-0.0425,0.208-0.125,0.4292-0.1808,0.6368-0.0971,0.1655-0.1655,0.3448-0.2764,0.4834-0.0419,0.1382-0.1665,0.2636-0.2216,0.4024-0.2344,0.29-0.415,0.6914-0.789,0.8984l-0.2066,0.8862c-0.3599,1.024-1.065,1.978-1.924,2.711,0.955,0,1.604-0.6226,2.421-1.038l0.0272,0.0415c0.5684,0.2636,1.205,0.5126,1.786,0.1665,0.3315-0.0825,0.5674-0.3189,0.7188-0.6094,0.0835-0.0548,0.1254-0.1368,0.1254-0.248-0.0825-0.084-0.208,0-0.2768,0.0551-0.3599,0.0561-0.7476-0.0551-0.9971-0.3194,0.3179-0.331,0.5962-0.6225,0.8994-0.9682,0.1393-0.1235,0.2076-0.3174,0.3609-0.3999,0.0264-0.1114,0.0684-0.1806,0.1368-0.2636,0.0151-0.1104,0.1112-0.1665,0.1112-0.2764,0.0689-0.1665,0.1802-0.2901,0.2212-0.4713,0.1934-0.2354,0.2779-0.5107,0.3462-0.8027,0.2778,0,0.5126-0.166,0.7344-0.332,0.3164-0.3174,0.496-0.8012,0.496-1.257,0-0.0561-0.082-0.0981-0.0264-0.1542-0.082-0.1094,0.0684-0.2075-0.0136-0.3174-0.0966-0.0556-0.1396,0.0694-0.2075,0.0981-0.167,0.2485-0.4844,0.3735-0.7749,0.3858,0-0.041,0-0.0551,0.0136-0.0961,0-0.1388,0-0.2638-0.0284-0.3878,0.0553-0.1934-0.0961-0.3462-0.0551-0.5532-0.0141-0.1235-0.0141-0.1939-0.041-0.3032-0.0699-0.1113-0.083-0.2216-0.1099-0.3471h-0.0284c-0.1381-0.207-0.207-0.3872-0.3183-0.5952-0.2759-0.4009-0.5952-0.7744-0.9688-1.037,0.333,0.0274,0.5946,0.0689,0.8853-0.0151,0.3612,0.0294,0.6225-0.0546,0.9678-0.0966,0.3461,0.0277,0.6655-0.1114,0.9834-0.1524,0.208-0.082,0.4434-0.082,0.623-0.2058,0.2075-0.0562,0.4146-0.25,0.4561-0.4712,0.3189-0.3738,0.332-0.9,0.4844-1.342,0.0561-0.5812-0.0972-1.094-0.1798-1.605" fill-rule="nonzero" fill="#231f20"/>

   <path d="m669.6,605.9c0.1099,0.0688,0.3048,0.0688,0.4292,0.14,0.0687-0.0425,0.0551,0.0675,0.1381,0.0675,0.1388-0.0275,0.2632,0.0138,0.3599,0.0688-0.3179,0.085-0.664,0.1662-1.01,0.2088-0.2354-0.1662-0.3882-0.4412-0.6645-0.5962,0.2626,0,0.4844,0.1388,0.747,0.1112zm5.756,16.94c-0.1114-0.0983-0.2364-0.1665-0.3594-0.2491-0.043-0.0971-0.167-0.1112-0.1949-0.2357,0-0.2218-0.1112-0.3468-0.0684-0.5816,0.0279-0.125,0.1661-0.1514,0.208-0.2626,0.0953-0.0553,0.1782-0.1798,0.3032-0.1798,0.166-0.1391,0.4141-0.2075,0.5806-0.333,1.22-0.539,2.159-1.812,2.672-2.986,0.0679-0.3048,0.1368-0.6099,0.2216-0.9l0.3726-0.1543c0.0966-0.0957,0.1396-0.2192,0.165-0.3584-0.0254-0.207-0.1788-0.3878-0.3169-0.4976,0.0556-0.1811,0.207-0.4301,0.1381-0.5966,0.042-0.1929-0.0556-0.3868-0.1112-0.5796-0.1529-0.4283-0.5938-0.7475-1.037-0.8442-0.0694-0.0141-0.1524,0.042-0.1382,0.1245,0.1651,0.1524,0.291,0.333,0.3736,0.5537,0.0546,0.124,0.041,0.3052,0.1099,0.415-0.0274,0.2349-0.0689,0.4561-0.1925,0.65-0.166-0.0415-0.3886,0-0.5536,0.0961-0.1382,0.1811-0.1665,0.4718-0.042,0.6788,0.042,0.084,0.124,0.0976,0.1801,0.1524-0.0146,0.1391-0.1112,0.2349-0.1801,0.3461-0.3325,0.4014-0.5942,0.9141-1.08,1.232-0.125,0.1371-0.3315,0.207-0.4834,0.3169-0.4854,0.1953-0.9698,0.4029-1.453,0.4995-0.2364,0.0815-0.5259,0-0.7192,0.1099-0.1944-0.0141-0.3878-0.0141-0.5806,0.0282-0.6089-0.082-1.288,0.0143-1.911-0.1522-0.1929-0.0279-0.373-0.125-0.581-0.0684l-0.0264-0.042c-0.623-0.0699-1.149-0.3462-1.73-0.5132-0.5679-0.2065-1.079-0.5111-1.55-0.8838-0.3316-0.3046-0.5962-0.5669-0.8575-0.8999-0.1391-0.0825-0.2216-0.2638-0.2764-0.4302-0.1391-0.1786-0.208-0.4145-0.3061-0.5946-0.1099-0.3741-0.1665-0.8438-0.1514-1.188,0.0699-0.0289,0-0.0704,0-0.1529,0.083-0.1665,0.0133-0.3189,0.1114-0.4829,0.248-0.1114,0.3862-0.4155,0.6778-0.4718,0.539-0.291,1.162-0.1665,1.784-0.1796,0.4565,0,0.8706,0.1372,1.274,0.291,0.1934,0.1099,0.4429,0.1924,0.5942,0.3448,0.29,0.1665,0.5249,0.4849,0.7075,0.7475,0.0546,0.0415-0.0166,0.1665,0.0947,0.1388,0.2762-0.4439,0.1816-1.039,0.125-1.536-0.0137-0.1651-0.0831-0.2774-0.1949-0.3736-0.1914-0.29-0.3862-0.5536-0.6626-0.7475-0.4014-0.2349-0.872-0.3306-1.343-0.4288-0.3315-0.0825-0.773-0.0274-1.038-0.3032-0.2764-0.0976-0.5244-0.2368-0.6772-0.499-0.0697-0.0825-0.1528-0.1376-0.1376-0.2349-0.1255-0.084-0.085-0.2349-0.167-0.3174-0.1534-0.54-0.0415-1.176,0.2778-1.634,0.1651-0.1662,0.2896-0.3738,0.5391-0.4425,0.1788,0.2075,0.3589,0.4288,0.6079,0.5538,0.1519,0.0275,0.3184,0.3038,0.4429,0.1238-0.1514-0.2625-0.1934-0.5112-0.2364-0.815,0.085-0.07,0.1798-0.0825,0.2648-0.0975,0.3315,0.015,0.7188,0.0688,1.05,0.1788,0.1396,0.125,0.3881,0.0838,0.4859,0.2775,0.1919,0.0688,0.4145,0.1662,0.581,0.305-0.043,0.3862-0.291,0.705-0.4854,1.038,0.0284,0.0412,0.0694,0.0412,0.1109,0.0412,0.125-0.0687,0.2339-0.1525,0.3745-0.2075,0.5244-0.2075,1.01-0.5538,1.397-0.9412,0.0279-0.11-0.1119-0.11-0.1529-0.1662-0.6781-0.165-1.176-0.6775-1.784-1.01,0.1504-0.055,0.373,0.0275,0.5098,0,1.148,0.1525,2.299,0.36,3.266,0.9275,0.083,0,0.1665,0,0.208-0.0412-0.1802-0.415-0.5396-0.775-0.8442-1.08-0.083-0.0688-0.166-0.1112-0.2221-0.2075-0.2071-0.1112-0.2906-0.2625-0.4971-0.3875-0.1529-0.125-0.3594-0.18-0.4692-0.3312-0.1265-0.015-0.2372-0.0975-0.3461-0.1512-0.1949-0.14-0.4292-0.1812-0.6372-0.2775,0.0551-0.0838,0.1245-0.18,0.1796-0.235,0.0284-0.0825,0.1802-0.125,0.0963-0.235-0.3042-0.1675-0.6626-0.1938-0.9819-0.2625l-0.0684-0.0562c-0.4439-0.0688-0.7891-0.1512-1.217-0.2362-0.0561,0.0275-0.0976,0.0275-0.1391,0-0.6792-0.1362-1.273-0.1938-1.964-0.1788l-0.4145-0.1788c-0.3061-0.0563-0.6094-0.155-0.9419-0.1662l-0.0553-0.0413c-0.4698-0.1112-0.9404-0.195-1.466-0.1538-0.6509-0.0412-1.274,0.015-1.923,0.0688l-0.457,0.0287c-0.25,0.0488-0.5816,0.04-0.6782,0.3312,0.0835,0.1938,0.208,0,0.3179,0.0287,0.5825,0.0263,1.219,0.04,1.786,0.0263,0,0,1.092,0.1525,1.618,0.2912,0.2212,0.0288,0.4298,0.125,0.6226,0.2362,0.3032,0.0688,0.5244,0.2475,0.8022,0.3588,0.2485,0.2062,0.5249,0.3325,0.7206,0.5938l-0.1259,0.0425c-0.3316,0.055-0.6631,0.2088-0.982,0.3175-0.3461,0.0975-0.7051,0.2488-1.024,0.4288-0.3594-0.2062-0.8852-0.0963-1.244-0.0113-0.4722,0.1088-0.7476,0.5238-0.9288,0.9388,0.042,0.0975-0.083,0.0975-0.0679,0.195-0.042,0.095,0.083,0.1238,0.1376,0.11,0.1665-0.18,0.4566-0.1525,0.6778-0.2075,0.1382,0.015,0.291-0.0412,0.3878,0.0412-0.291,0.3738-0.416,0.83-0.5942,1.259,0.0269,0.07,0.0131,0.2212-0.0566,0.305-0.0962,0.485,0.125,0.9396,0.373,1.3,0.1104,0.2481,0.3048,0.4024,0.4726,0.6495-0.3622,0.2226-0.8315,0.249-1.149,0.5541-0.3194,0.1382-0.5274,0.4575-0.8438,0.5811-0.1529,0.1522-0.3594,0.3051-0.499,0.4706-0.1114,0.0825-0.1114,0.2213-0.2495,0.2764-0.3184,0.4698-0.6094,0.8711-0.8145,1.398,0.0132,0.1939-0.1811,0.3461-0.1811,0.5679-0.1934,0.414-0.1934,0.872-0.2212,1.328,0.0279,0.124,0.0147,0.3448,0.0147,0.4839-0.0299,0.3051,0.0815,0.499,0.0966,0.7886,0.123,0.3188,0.1798,0.706,0.3462,0.9955-0.0284,0.0709,0.0267,0.1114,0.0531,0.1534,0.0284,0.0694,0.1119,0.0561,0.0967,0.1381,0.1112,0.1255,0.1962,0.3038,0.3461,0.3179,0.0699-0.0825,0-0.2349-0.04-0.3315-0.0151-0.3735,0.04-0.8038,0.2349-1.135,0.1381-0.3032,0.4975-0.4575,0.8438-0.4844,0.8574,0.1386,1.218,0.9956,1.522,1.702,0.1112,0.2212,0.1665,0.5259,0.333,0.732l-0.0137,0.0429h0.0269c0.2212,0.2911,0.3048,0.6792,0.5396,0.9546,0.0966,0.3604,0.4009,0.582,0.6089,0.8575,0.2764,0.2075,0.498,0.5126,0.8164,0.7065,0.0694,0.1099,0.249,0.1376,0.3458,0.2211,0.5664,0.1798,1.148,0.5112,1.799,0.4986,0.0415-0.0289,0.1099-0.0289,0.1099-0.0835,0-0.0415,0-0.0963-0.041-0.0963-0.375-0.168-0.6782-0.54-0.8164-0.914-0.083-0.0835-0.0543-0.2071-0.1392-0.3037,0.0294-0.291,0.085-0.6099,0.3462-0.8159,0.2764-0.0978,0.6358-0.0289,0.8999-0.0576,0.5942,0,1.19,0.3061,1.633,0.6924,0.2749,0.1939,0.5528,0.3755,0.829,0.581,0.1929,0.0274,0.3462,0.1939,0.4981,0.291,0.249,0.1245,0.497,0.292,0.79,0.3589,0.5244,0.2364,1.064,0.3872,1.645,0.4302,0.166,0.0551,0.4009,0.0131,0.5406,0.0825,0.0682-0.0694,0.2211-0.0274,0.3178-0.041,0.4429-0.0689,0.9405-0.0561,1.314-0.2354,0.0557-0.041,0.0284-0.1386,0-0.1939-0.2612-0.0971-0.5805-0.0684-0.8154-0.2206" fill-rule="nonzero" fill="#231f20"/>

  </g>

 </g>

</svg>